<?xml version="1.0" standalone="no"?>
<!DOCTYPE svg PUBLIC "-//W3C//DTD SVG 1.1//EN" "http://www.w3.org/Graphics/SVG/1.1/DTD/svg11.dtd" >
<svg xmlns="http://www.w3.org/2000/svg">
<metadata></metadata>
<defs>
<font id="relativebold" horiz-adv-x="1167" >
<font-face units-per-em="2048" ascent="1638" descent="-410" />
<missing-glyph horiz-adv-x="522" />
<glyph horiz-adv-x="0" />
<glyph horiz-adv-x="682" />
<glyph unicode=" "  horiz-adv-x="522" />
<glyph unicode="&#x09;" horiz-adv-x="522" />
<glyph unicode="&#xa0;" horiz-adv-x="522" />
<glyph unicode="!" horiz-adv-x="618" d="M170 20v238q0 21 20 21h238q21 0 21 -21v-238q0 -20 -21 -20h-238q-20 0 -20 20zM182 416v997q0 21 21 21h213q20 0 20 -21v-997q0 -21 -20 -21h-213q-21 0 -21 21z" />
<glyph unicode="&#x22;" horiz-adv-x="851" d="M111 954v459q0 21 20 21h201q20 0 20 -21v-459q0 -20 -20 -20h-201q-20 0 -20 20zM500 954v459q0 21 20 21h201q20 0 20 -21v-459q0 -20 -20 -20h-201q-20 0 -20 20z" />
<glyph unicode="#" horiz-adv-x="1591" d="M123 426v197q0 20 20 20h271l26 148h-215q-20 0 -20 20v197q0 20 20 20h256l66 385q3 21 22 21h201q18 0 18 -21l-65 -385h252l65 385q3 21 23 21h201q18 0 18 -21l-65 -385h229q20 0 20 -20v-197q0 -20 -20 -20h-270l-27 -148h215q20 0 20 -20v-197q0 -20 -20 -20h-256 l-66 -386q-3 -20 -22 -20h-201q-18 0 -18 20l65 386h-252l-65 -386q-3 -20 -23 -20h-200q-19 0 -19 20l66 386h-230q-20 0 -20 20zM655 643h252l27 148h-252z" />
<glyph unicode="$" horiz-adv-x="1208" d="M47 463q0 20 21 20h215q17 0 20 -20q14 -174 178 -227v413q-200 62 -299.5 154.5t-99.5 243.5q0 163 113.5 268t285.5 131v172q0 20 21 20h196q21 0 21 -20v-178q175 -36 281.5 -152.5t111.5 -261.5q0 -20 -20 -20h-218q-17 0 -20 20q-21 121 -135 170v-377 q95 -28 166.5 -59.5t136 -77t99 -108.5t34.5 -140q0 -189 -116.5 -305t-319.5 -141v-172q0 -21 -21 -21h-196q-21 0 -21 21v176q-191 34 -311.5 165.5t-122.5 305.5zM340 1059q0 -53 36 -91t105 -69v309q-65 -16 -103 -54t-38 -95zM719 225q84 19 131 67.5t47 115.5 q0 105 -178 174v-357z" />
<glyph unicode="%" horiz-adv-x="1814" d="M104 1067q0 166 108 266.5t259 100.5t259 -100.5t108 -266.5t-108 -266.5t-259 -100.5t-259 100.5t-108 266.5zM274 117l1145 1310q13 16 29 0l90 -81q15 -15 4 -29l-1145 -1311q-12 -16 -28 0l-90 82q-16 16 -5 29zM299 1067q0 -91 51 -137.5t121 -46.5t121 46.5 t51 137.5t-51 137.5t-121 46.5t-121 -46.5t-51 -137.5zM977 367q0 166 107.5 266t258.5 100q98 0 180.5 -43t134.5 -127.5t52 -195.5q0 -166 -108 -266.5t-259 -100.5t-258.5 100.5t-107.5 266.5zM1171 367q0 -92 51 -138.5t121 -46.5t121.5 47t51.5 138t-51 137.5 t-122 46.5q-70 0 -121 -46.5t-51 -137.5z" />
<glyph unicode="&#x26;" horiz-adv-x="1388" d="M94 397q0 274 279 443q-97 150 -97 278q0 145 99.5 240.5t261.5 95.5q163 0 261.5 -89t98.5 -214q0 -119 -50.5 -197t-145.5 -131l-101 -57l195 -268q25 103 25 231q0 19 20 19h350q21 0 21 -21v-180q0 -21 -21 -21h-168q-13 -132 -65 -241l178 -252q6 -12 6 -19 q0 -14 -16 -14h-236q-14 0 -26 18l-54 74q-142 -112 -362 -112q-203 0 -328 115t-125 302zM340 403q0 -89 58.5 -145.5t160.5 -56.5q127 0 217 78l-272 376q-164 -100 -164 -252zM506 1110q0 -72 63 -160l6 -8l78 37q59 29 85 62.5t26 78.5q0 50 -35 81.5t-92 31.5 q-54 0 -92.5 -33t-38.5 -90z" />
<glyph unicode="'" horiz-adv-x="462" d="M111 954v459q0 21 20 21h201q20 0 20 -21v-459q0 -20 -20 -20h-201q-20 0 -20 20z" />
<glyph unicode="(" horiz-adv-x="731" d="M154 362v306q0 151 17 255.5t62.5 195.5t114 163.5t182.5 161.5q9 6 15 6t14 -8l129 -148q6 -6 6 -14q0 -6 -8 -14q-67 -60 -105 -97t-73 -84.5t-50.5 -86t-27.5 -101.5t-15 -130t-3 -173v-158q0 -106 3 -173t15 -130t27.5 -101.5t50.5 -86t73 -84.5t105 -97q8 -8 8 -14 q0 -8 -6 -14l-129 -148q-8 -8 -14 -8t-15 6q-114 89 -182.5 161.5t-114 163.5t-62.5 195.5t-17 255.5z" />
<glyph unicode=")" horiz-adv-x="741" d="M47 -250q0 6 8 14q67 60 105 97t73 84.5t50.5 86t28 101.5t15.5 130t3 173v158q0 106 -3 173t-15.5 130t-28 101.5t-50.5 86t-73 84.5t-105 97q-8 8 -8 14q0 8 6 14l129 148q8 8 15 8q5 0 14 -6q152 -118 229.5 -217.5t112.5 -229t35 -329.5v-306q0 -200 -35 -329.5 t-112.5 -229t-229.5 -217.5q-9 -6 -14 -6q-7 0 -15 8l-129 148q-6 6 -6 14z" />
<glyph unicode="*" horiz-adv-x="964" d="M104 1100l52 160q6 18 26 12l195 -64v205q0 21 20 21h168q21 0 21 -21v-205l194 64q21 6 27 -12l51 -160q6 -22 -12 -27l-195 -63l119 -164q15 -18 -4 -31l-135 -96q-19 -13 -29 2l-121 164l-121 -164q-10 -14 -28 -2l-135 96q-19 13 -4 31l118 164l-194 63q-19 5 -13 27 z" />
<glyph unicode="+" horiz-adv-x="1171" d="M104 606v189q0 20 21 20h346v346q0 21 21 21h188q20 0 20 -21v-346h347q20 0 20 -20v-189q0 -20 -20 -20h-347v-346q0 -21 -20 -21h-188q-21 0 -21 21v346h-346q-21 0 -21 20z" />
<glyph unicode="," horiz-adv-x="593" d="M164 20v222q0 20 20 20h222q20 0 20 -20v-281q0 -93 -44 -146t-134 -53h-55q-21 0 -21 21v86q0 20 21 20q51 0 72.5 20.5t21.5 65.5v25h-103q-20 0 -20 20z" />
<glyph unicode="-" horiz-adv-x="1052" d="M104 606v189q0 20 21 20h803q20 0 20 -20v-189q0 -20 -20 -20h-803q-21 0 -21 20z" />
<glyph unicode="." horiz-adv-x="593" d="M164 20v222q0 20 20 20h222q20 0 20 -20v-222q0 -20 -20 -20h-222q-20 0 -20 20z" />
<glyph unicode="/" horiz-adv-x="987" d="M20 5.5q-4 5.5 0 14.5l711 1393q9 21 29 21h223q9 0 12.5 -6t-0.5 -15l-710 -1393q-9 -20 -27 -20h-225q-9 0 -13 5.5z" />
<glyph unicode="0" horiz-adv-x="1273" d="M72 717q0 175 44 316.5t121 232.5t179.5 139.5t220.5 48.5t220.5 -48.5t179.5 -139.5t121 -232.5t44 -316.5t-44 -316.5t-121 -232.5t-179.5 -139.5t-220.5 -48.5t-220.5 48.5t-179.5 139.5t-121 232.5t-44 316.5zM326 717q0 -133 24 -231t67.5 -154.5t98 -83.5 t121.5 -27t121.5 27t98 83.5t67.5 154.5t24 231t-24 231t-67.5 154.5t-98 83t-121.5 26.5t-121.5 -26.5t-98 -83t-67.5 -154.5t-24 -231z" />
<glyph unicode="1" horiz-adv-x="806" d="M111 991v219q0 20 22 31l338 182q18 11 33 11h114q21 0 21 -21v-1393q0 -20 -21 -20h-208q-21 0 -21 20v1094l-242 -135q-12 -6 -20 -6q-16 0 -16 18z" />
<glyph unicode="2" horiz-adv-x="1243" d="M119 20v162q0 28 22 47l537 502q141 132 141 268q0 97 -59.5 155t-159.5 58q-98 0 -161 -57.5t-72 -161.5q-1 -18 -7 -24t-20 -6h-195q-24 0 -24 30q5 192 137.5 326.5t341.5 134.5q216 0 342.5 -121.5t126.5 -318.5q0 -134 -52 -231.5t-173 -211.5l-350 -329h598 q20 0 20 -21v-201q0 -20 -20 -20h-953q-20 0 -20 20z" />
<glyph unicode="3" horiz-adv-x="1232" d="M92 446q3 35 27 35h192q27 0 29 -26q13 -122 89.5 -178t188.5 -56t181 57t69 164q0 93 -71 147t-209 54h-113q-22 0 -22 23v196q0 23 22 23h113q118 0 170.5 46t52.5 122q0 75 -51.5 117t-145.5 42q-83 0 -145 -46.5t-80 -133.5q-3 -16 -8.5 -20t-18.5 -4h-194 q-27 0 -27 34q12 178 146 295t319 117q198 0 326.5 -105t128.5 -276q0 -186 -158 -297q39 -18 74.5 -45.5t69.5 -70t54.5 -105.5t20.5 -137q0 -204 -141 -321t-375 -117q-213 0 -358.5 125.5t-155.5 340.5z" />
<glyph unicode="4" horiz-adv-x="1224" d="M61 258v158q0 23 17 47l647 954q10 17 27 17h155q21 0 21 -21v-934h202q21 0 21 -20v-201q0 -20 -21 -20h-202v-218q0 -20 -23 -20h-207q-20 0 -20 20v218h-596q-21 0 -21 20zM354 479h324v484z" />
<glyph unicode="5" horiz-adv-x="1245" d="M119 424q0 31 24 31h199q12 0 17 -6t10 -25q22 -103 93.5 -153t174.5 -50q111 0 180.5 64.5t69.5 179.5q0 113 -70 178.5t-190 65.5q-152 0 -269 -95q-2 -2 -5.5 -5t-5 -4.5t-4.5 -3.5t-5.5 -3t-6 -1.5t-7.5 -0.5h-174q-21 0 -21 20l88 797q3 21 21 21h802q21 0 21 -21 v-201q0 -20 -21 -20h-591l-50 -307q127 65 279 65q213 0 336 -125.5t123 -355.5q0 -121 -39 -215.5t-109 -153.5t-162 -89.5t-202 -30.5q-219 0 -355.5 120.5t-150.5 323.5z" />
<glyph unicode="6" horiz-adv-x="1280" d="M133 653q0 204 39.5 359t112 250.5t169.5 143.5t216 48q193 0 319 -105.5t148 -279.5q0 -20 -23 -20h-205q-15 0 -22 20q-48 143 -217 143q-235 0 -279 -385q141 99 314 99q204 0 336.5 -129t132.5 -344q0 -108 -42 -198.5t-112.5 -150t-162 -92t-191.5 -32.5 q-114 0 -208.5 39t-168 118.5t-115 211t-41.5 304.5zM432 453q0 -103 68 -167.5t178 -64.5t178 64.5t68 167.5t-68 167t-178 64t-178 -64t-68 -167z" />
<glyph unicode="7" horiz-adv-x="1044" d="M59 1212v201q0 21 21 21h926q20 0 20 -21v-160q0 -22 -10 -51l-479 -1188q-6 -14 -23 -14h-209q-20 0 -20 16q0 7 4 15l469 1161h-678q-21 0 -21 20z" />
<glyph unicode="8" horiz-adv-x="1232" d="M119 426q0 84 30 151.5t70.5 107t99.5 77.5q-155 119 -155 293q0 124 63.5 216t165 137.5t223.5 45.5t223.5 -45.5t165.5 -137.5t64 -216q0 -173 -156 -293q93 -59 147 -136.5t54 -199.5q0 -194 -137.5 -320t-360.5 -126t-360 125.5t-137 320.5zM373 428q0 -95 68 -151 t175 -56t175.5 56t68.5 151q0 96 -68.5 151.5t-175.5 55.5t-175 -55.5t-68 -151.5zM410 1047q0 -81 56 -128t150 -47t150.5 47t56.5 128q0 82 -56.5 126t-150.5 44t-150 -44t-56 -126z" />
<glyph unicode="9" horiz-adv-x="1280" d="M106 981q0 108 42 198.5t112.5 150t162 92t191.5 32.5q114 0 208.5 -39.5t168 -118.5t115 -211t41.5 -305q0 -204 -39.5 -358.5t-112 -250.5t-169.5 -143.5t-216 -47.5q-193 0 -319 105.5t-148 279.5q0 20 23 20h205q15 0 22 -20q48 -144 217 -144q235 0 279 385 q-140 -98 -314 -98q-204 0 -336.5 129t-132.5 344zM356 981q0 -103 68 -167t178 -64t178 64t68 167t-68 167t-178 64t-178 -64t-68 -167z" />
<glyph unicode=":" horiz-adv-x="593" d="M164 20v222q0 20 20 20h222q20 0 20 -20v-222q0 -20 -20 -20h-222q-20 0 -20 20zM164 786v222q0 20 20 20h222q20 0 20 -20v-222q0 -20 -20 -20h-222q-20 0 -20 20z" />
<glyph unicode=";" horiz-adv-x="593" d="M164 20v222q0 20 20 20h222q20 0 20 -20v-281q0 -93 -44 -146t-134 -53h-55q-21 0 -21 21v86q0 20 21 20q51 0 72.5 20.5t21.5 65.5v25h-103q-20 0 -20 20zM164 786v222q0 20 20 20h222q20 0 20 -20v-222q0 -20 -20 -20h-222q-20 0 -20 20z" />
<glyph unicode="&#x3c;" horiz-adv-x="1058" d="M106 502v196q0 15 21 27l788 401q21 9 21 -12v-225q0 -20 -21 -29l-518 -260l518 -260q21 -9 21 -29v-225q0 -21 -21 -12l-788 401q-21 12 -21 27z" />
<glyph unicode="=" horiz-adv-x="1163" d="M131 313v189q0 20 21 20h913q20 0 20 -20v-189q0 -20 -20 -20h-913q-21 0 -21 20zM131 729v189q0 20 21 20h913q20 0 20 -20v-189q0 -20 -20 -20h-913q-21 0 -21 20z" />
<glyph unicode="&#x3e;" horiz-adv-x="1058" d="M123 86v225q0 20 20 29l519 260l-519 260q-20 9 -20 29v225q0 21 20 12l789 -401q20 -11 20 -27v-196q0 -16 -20 -27l-789 -401q-20 -9 -20 12z" />
<glyph unicode="?" d="M131 1020q3 82 37 159.5t94 139t151.5 98.5t200.5 37q201 0 322 -103.5t121 -258.5q0 -73 -18.5 -132.5t-47.5 -99t-64.5 -74t-71 -66t-64.5 -65.5t-47.5 -82t-18.5 -106v-51q0 -21 -20 -21h-213q-21 0 -21 21v51q0 75 18.5 137t47.5 105t64.5 79t71 66t64.5 59t47.5 65 t18.5 77q0 66 -49 111.5t-133 45.5q-91 0 -155 -49t-85 -143q-3 -12 -7 -16.5t-14 -4.5h-208q-21 0 -21 21zM459 20v238q0 21 20 21h238q20 0 20 -21v-238q0 -20 -20 -20h-238q-20 0 -20 20z" />
<glyph unicode="@" horiz-adv-x="1650" d="M72 584q0 176 64.5 321t173.5 238t249 143.5t295 50.5q134 0 250.5 -35.5t202.5 -99t148 -149.5t93 -189.5t31 -216.5q0 -223 -87.5 -346t-250.5 -123q-70 0 -125.5 28t-83.5 75q-59 -52 -119 -77.5t-143 -25.5q-154 0 -253 96t-99 271q0 198 115.5 321t283.5 123 q111 0 207 -67l6 36q3 17 17 17h133q16 0 16 -17l-45 -411q-4 -50 -4 -72q0 -123 106 -123q61 0 95 72.5t34 206.5q0 108 -32.5 201.5t-95.5 166.5t-165.5 115.5t-234.5 42.5q-112 0 -216.5 -40.5t-185.5 -112.5t-129.5 -181.5t-48.5 -238.5q0 -131 44 -242.5t120.5 -188.5 t184 -120t231.5 -43q97 0 172.5 16.5t112.5 34t106 57.5q17 8 25 -8l71 -139q7 -17 -8 -25q-110 -60 -222.5 -88t-256.5 -28q-165 0 -307.5 52t-248.5 149t-166 244.5t-60 328.5zM610 551q0 -95 45 -147t125 -52q93 0 151 74t58 184q0 99 -41 152t-119 53q-70 0 -121 -40 t-74.5 -98.5t-23.5 -125.5z" />
<glyph unicode="A" horiz-adv-x="1282" d="M-6 20q0 7 2 13l504 1380q2 7 3 9.5t3 6t5.5 4.5t8.5 1h242q10 0 13 -4.5t7 -16.5l504 -1380q2 -6 2 -13q0 -20 -22 -20h-224q-11 0 -16 4.5t-8 15.5l-123 359h-508l-123 -359q-3 -11 -8 -15.5t-16 -4.5h-224q-22 0 -22 20zM469 616h344l-172 500z" />
<glyph unicode="B" horiz-adv-x="1288" d="M143 20v1393q0 21 21 21h549q183 0 304.5 -103t121.5 -276q0 -95 -37.5 -161t-108.5 -122q207 -93 207 -346q0 -185 -119.5 -305.5t-318.5 -120.5h-598q-21 0 -21 20zM401 238h336q90 0 145.5 52.5t55.5 145.5q0 90 -56 144.5t-145 54.5h-336v-397zM401 872h314 q74 0 120 42t46 122t-45.5 120t-120.5 40h-314v-324z" />
<glyph unicode="C" horiz-adv-x="1447" d="M78 717q0 150 38.5 274.5t103 208.5t151 142.5t180.5 85t194 26.5q168 0 306 -61.5t227 -179t108 -273.5q0 -12 -5 -16t-17 -4h-207q-18 0 -24 20q-79 277 -388 277q-76 0 -146 -31.5t-128 -91t-92.5 -157.5t-34.5 -220t34.5 -220t92.5 -157.5t128 -91t146 -31.5 q309 0 388 277q6 20 24 20h207q12 0 17 -4t5 -16q-19 -156 -108 -273.5t-227 -179t-306 -61.5q-100 0 -194 26.5t-180.5 85t-151 142.5t-103 208.5t-38.5 274.5z" />
<glyph unicode="D" horiz-adv-x="1349" d="M143 20v1393q0 21 21 21h434q111 0 210.5 -27.5t184.5 -85.5t147 -141.5t97 -202t35 -260.5t-35 -260.5t-97 -202t-147 -141.5t-184.5 -85.5t-210.5 -27.5h-434q-21 0 -21 20zM401 238h185q191 0 305.5 121t114.5 358t-114.5 358t-305.5 121h-185v-958z" />
<glyph unicode="E" horiz-adv-x="1196" d="M143 20v1393q0 21 21 21h883q20 0 20 -21v-196q0 -21 -20 -21h-646v-324h584q21 0 21 -20v-197q0 -20 -21 -20h-584v-397h676q21 0 21 -21v-197q0 -20 -21 -20h-913q-21 0 -21 20z" />
<glyph unicode="F" horiz-adv-x="1206" d="M143 20v1393q0 21 21 21h909q21 0 21 -21v-196q0 -21 -21 -21h-672v-354h607q20 0 20 -21v-196q0 -21 -20 -21h-607v-584q0 -20 -20 -20h-217q-21 0 -21 20z" />
<glyph unicode="G" horiz-adv-x="1460" d="M78 717q0 141 38 261.5t103 207t152 148t186 91t203 29.5q238 0 411 -125.5t203 -333.5q0 -12 -5 -16t-17 -4h-215q-19 0 -25 20q-75 222 -352 222q-79 0 -152.5 -32t-133 -92.5t-95 -158t-35.5 -217.5q0 -232 119 -366t305 -134q254 0 369 176v121h-379q-21 0 -21 21 v196q0 21 21 21h616q21 0 21 -21v-354q0 -47 -21 -78q-90 -146 -248 -232.5t-338 -86.5q-146 0 -273 47t-225.5 136.5t-155 232t-56.5 321.5z" />
<glyph unicode="H" horiz-adv-x="1388" d="M139 20v1393q0 21 21 21h217q20 0 20 -21v-547h594v547q0 21 21 21h217q20 0 20 -21v-1393q0 -20 -20 -20h-217q-21 0 -21 20v609h-594v-609q0 -20 -20 -20h-217q-21 0 -21 20z" />
<glyph unicode="I" horiz-adv-x="516" d="M129 20v1393q0 21 21 21h217q20 0 20 -21v-1393q0 -20 -20 -20h-217q-21 0 -21 20z" />
<glyph unicode="J" horiz-adv-x="1107" d="M39 465q0 20 20 20h217q21 0 21 -20q0 -122 63.5 -185t161.5 -63q123 0 178.5 80.5t55.5 259.5v856q0 21 20 21h217q21 0 21 -21v-854q0 -285 -130.5 -432t-361.5 -147q-147 0 -258.5 65.5t-168 175t-56.5 244.5z" />
<glyph unicode="K" horiz-adv-x="1257" d="M143 20v1393q0 21 21 21h217q20 0 20 -21v-508l469 508q18 21 37 21h250q15 0 18 -10t-6 -19l-467 -500l551 -876q4 -7 4 -13q0 -4 -2 -8q-5 -8 -16 -8h-246q-20 0 -39 31l-430 684l-123 -131v-564q0 -20 -20 -20h-217q-21 0 -21 20z" />
<glyph unicode="L" horiz-adv-x="1183" d="M143 20v1393q0 21 21 21h217q20 0 20 -21v-1175h699q20 0 20 -21v-197q0 -20 -20 -20h-936q-21 0 -21 20z" />
<glyph unicode="M" horiz-adv-x="1634" d="M143 20v1393q0 21 21 21h256q24 0 33 -21l364 -842l365 842q9 21 32 21h256q21 0 21 -21v-1393q0 -20 -21 -20h-217q-20 0 -20 20v945l-303 -703q-9 -22 -29 -22h-168q-19 0 -28 22l-304 703v-945q0 -20 -20 -20h-217q-21 0 -21 20z" />
<glyph unicode="N" horiz-adv-x="1425" d="M143 20v1393q0 21 21 21h219q22 0 33 -17l604 -971v967q0 21 20 21h222q20 0 20 -21v-1393q0 -20 -20 -20h-220q-21 0 -32 16l-604 971v-967q0 -20 -21 -20h-221q-21 0 -21 20z" />
<glyph unicode="O" horiz-adv-x="1572" d="M78 717q0 145 40 267.5t108 207.5t159 145t192.5 88.5t208.5 28.5t209 -28.5t193 -88.5t159 -145t108 -207.5t40 -267.5t-40 -267.5t-108 -207.5t-159 -145t-193 -88.5t-209 -28.5t-208.5 28.5t-192.5 88.5t-159 145t-108 207.5t-40 267.5zM344 717q0 -122 36.5 -219.5 t99 -157.5t140.5 -91.5t166 -31.5q70 0 134 19.5t120.5 60t98.5 99t66 141t24 180.5t-24 180.5t-66 141t-98.5 99t-120.5 60t-134 19.5q-88 0 -166 -31.5t-140.5 -91.5t-99 -157.5t-36.5 -219.5z" />
<glyph unicode="P" horiz-adv-x="1241" d="M143 20v1393q0 21 21 21h526q230 0 358 -111t128 -301t-128 -301t-358 -111h-289v-590q0 -20 -20 -20h-217q-21 0 -21 20zM401 848h299q97 0 155 45t58 129t-58 129t-155 45h-299v-348z" />
<glyph unicode="Q" horiz-adv-x="1572" d="M78 717q0 145 40 267.5t108 207.5t159 145t192.5 88.5t208.5 28.5t209 -28.5t193 -88.5t159 -145t108 -207.5t40 -267.5q0 -277 -143 -467l114 -111q9 -9 9 -14t-9 -14l-147 -150q-8 -8 -14 -8q-7 0 -15 8l-125 121q-168 -102 -379 -102q-107 0 -208.5 28.5t-192.5 88.5 t-159 145t-108 207.5t-40 267.5zM344 717q0 -122 36.5 -219.5t99 -157.5t140.5 -91.5t166 -31.5q105 0 195 43l-115 111q-8 8 -8 14t8 14l148 150q8 8 14 8t14 -8l119 -117q68 120 68 285q0 98 -24 180.5t-66 141t-98.5 99t-120.5 60t-134 19.5q-88 0 -166 -31.5 t-140.5 -91.5t-99 -157.5t-36.5 -219.5z" />
<glyph unicode="R" horiz-adv-x="1259" d="M143 20v1393q0 21 21 21h559q199 0 318.5 -104t119.5 -288q0 -129 -76 -228.5t-188 -145.5l305 -648q2 -4 2 -8q0 -12 -18 -12h-236q-17 0 -28 20l-308 631h-213v-631q0 -20 -20 -20h-217q-21 0 -21 20zM401 889h332q78 0 124 41.5t46 111.5q0 71 -46 112.5t-124 41.5 h-332v-307z" />
<glyph unicode="S" horiz-adv-x="1208" d="M47 463q0 20 21 20h215q17 0 20 -20q10 -121 92.5 -183.5t218.5 -62.5q129 0 206 52.5t77 138.5q0 136 -326 217q-121 31 -207 66.5t-152 85t-98 116.5t-32 154q0 126 72 220.5t184.5 140.5t245.5 46q115 0 214.5 -35.5t166.5 -95t106 -136.5t41 -161q0 -20 -20 -20h-218 q-17 0 -20 20q-15 93 -89 142t-185 49q-105 0 -172.5 -41t-67.5 -117q0 -35 19 -65.5t47.5 -52.5t76 -43t91 -35t106.5 -32q81 -22 144 -45.5t127.5 -58.5t107 -75t69.5 -96t27 -122q0 -215 -149.5 -334.5t-403.5 -119.5q-156 0 -283.5 65t-199 175.5t-72.5 242.5z" />
<glyph unicode="T" horiz-adv-x="1155" d="M27 1217v196q0 21 20 21h1061q20 0 20 -21v-196q0 -21 -20 -21h-401v-1176q0 -20 -21 -20h-217q-20 0 -20 20v1176h-402q-20 0 -20 21z" />
<glyph unicode="U" horiz-adv-x="1310" d="M111 553v860q0 21 20 21h217q21 0 21 -21v-858q0 -171 76 -254.5t210 -83.5t210.5 83.5t76.5 254.5v858q0 21 21 21h217q20 0 20 -21v-860q0 -267 -149 -420t-396 -153t-395.5 153t-148.5 420z" />
<glyph unicode="V" horiz-adv-x="1277" d="M-4 1421q0 13 18 13h242q19 0 25 -21l358 -1106l358 1106q6 21 25 21h242q18 0 18 -13q0 -4 -2 -10l-492 -1391q-3 -11 -7.5 -15.5t-14.5 -4.5h-254q-17 0 -23 20l-491 1391q-2 6 -2 10z" />
<glyph unicode="W" horiz-adv-x="1712" d="M4 1421q0 13 19 13h223q21 0 24 -21l207 -1046l250 948q6 20 25 20h209q18 0 24 -20l250 -948l207 1046q3 21 24 21h224q18 0 18 -13q0 -4 -2 -12l-322 -1389q-3 -11 -7.5 -15.5t-14.5 -4.5h-250q-10 0 -14.5 4.5t-7.5 15.5l-234 920l-233 -920q-6 -20 -23 -20h-250 q-10 0 -14.5 4.5t-7.5 15.5l-322 1389q-2 8 -2 12z" />
<glyph unicode="X" horiz-adv-x="1220" d="M-10 12q0 4 2 8l473 734l-420 659q-2 4 -2 8q0 13 16 13h252q11 0 16.5 -4t12.5 -17l270 -432l271 432q7 13 12 17t16 4h252q17 0 17 -13q0 -4 -2 -8l-420 -659l473 -734q2 -4 2 -8q0 -12 -17 -12h-258q-11 0 -16 3.5t-14 16.5l-316 506l-315 -506q-13 -20 -31 -20h-258 q-16 0 -16 12z" />
<glyph unicode="Y" horiz-adv-x="1118" d="M-12 1421q0 13 14 13h240q19 0 26 -17l291 -645l291 645q7 17 27 17h239q14 0 14 -13q0 -4 -2 -8l-440 -909v-484q0 -20 -20 -20h-217q-21 0 -21 20v484l-440 909q-2 4 -2 8z" />
<glyph unicode="Z" horiz-adv-x="1241" d="M55 20v189q0 15 13 35l763 952h-720q-21 0 -21 21v196q0 21 21 21h1005q21 0 21 -21v-188q0 -15 -13 -35l-762 -952h797q21 0 21 -21v-197q0 -20 -21 -20h-1083q-21 0 -21 20z" />
<glyph unicode="[" horiz-adv-x="837" d="M143 -385v1798q0 21 21 21h571q21 0 21 -21v-196q0 -21 -21 -21h-334v-1364h334q21 0 21 -20v-197q0 -21 -21 -21h-571q-21 0 -21 21z" />
<glyph unicode="\" horiz-adv-x="987" d="M-8 1413q-9 21 12 21h223q20 0 29 -21l711 -1393q9 -20 -15 -20h-223q-18 0 -27 20z" />
<glyph unicode="]" horiz-adv-x="837" d="M82 -188q0 20 20 20h334v1364h-334q-20 0 -20 21v196q0 21 20 21h572q20 0 20 -21v-1798q0 -21 -20 -21h-572q-20 0 -20 21v197z" />
<glyph unicode="^" horiz-adv-x="1138" d="M38 741.5q-4 6.5 1 14.5l397 657q10 21 27 21h213q16 0 26 -21l398 -657q4 -8 0 -14.5t-13 -6.5h-227q-18 0 -29 21l-262 436l-262 -436q-11 -21 -28 -21h-228q-9 0 -13 6.5z" />
<glyph unicode="_" horiz-adv-x="1148" d="M109 -20q0 20 20 20h891q20 0 20 -20v-189q0 -20 -20 -20h-891q-20 0 -20 20v189z" />
<glyph unicode="`" horiz-adv-x="776" d="M165 1427q3 7 13 7h260q19 0 31 -21l141 -258q5 -7 2 -13.5t-12 -6.5h-184q-22 0 -37 18l-211 260q-6 7 -3 14z" />
<glyph unicode="a" horiz-adv-x="1103" d="M80 322q0 162 118.5 253t295.5 91q99 0 251 -41v28q0 79 -49.5 126.5t-140.5 47.5q-135 0 -188 -96q-11 -18 -29 -18h-207q-14 0 -14 12t2 20q31 133 145.5 218.5t290.5 85.5q198 0 317 -107t119 -289v-444q0 -120 39 -189q3 -6 3 -10q0 -10 -17 -10h-250q-21 0 -21 20 v60q-55 -46 -122 -73t-170 -27q-161 0 -267 93.5t-106 248.5zM317 328q0 -60 47.5 -93.5t133.5 -33.5q98 0 172.5 60t74.5 155q-141 41 -241 41q-80 0 -133.5 -34t-53.5 -95z" />
<glyph unicode="b" horiz-adv-x="1220" d="M135 20v1393q0 21 21 21h204q21 0 21 -21v-467q129 103 295 103q209 0 338 -145t129 -390t-129 -389.5t-338 -144.5q-166 0 -295 104v-64q0 -20 -21 -20h-204q-21 0 -21 20zM369 514q0 -136 69.5 -224.5t188.5 -88.5t188.5 88.5t69.5 224.5t-69.5 224.5t-188.5 88.5 t-188.5 -88.5t-69.5 -224.5z" />
<glyph unicode="c" horiz-adv-x="1161" d="M74 514q0 238 152 386.5t384 148.5q195 0 326.5 -106.5t155.5 -260.5q2 -8 2 -20q0 -13 -15 -13h-200q-22 0 -29 19q-27 77 -91 118t-153 41q-124 0 -199 -82.5t-75 -230.5t75 -230.5t199 -82.5q89 0 153 41t91 118q7 19 29 19h200q15 0 15 -12q0 -13 -2 -21 q-24 -154 -155.5 -260t-326.5 -106q-232 0 -384 148t-152 386z" />
<glyph unicode="d" horiz-adv-x="1220" d="M78 514q0 245 129 390t338 145q166 0 295 -103v467q0 21 20 21h205q20 0 20 -21v-1393q0 -20 -20 -20h-205q-20 0 -20 20v64q-129 -104 -295 -104q-209 0 -338 144.5t-129 389.5zM336 514q0 -136 69.5 -224.5t188.5 -88.5t188.5 88.5t69.5 224.5t-69.5 224.5t-188.5 88.5 t-188.5 -88.5t-69.5 -224.5z" />
<glyph unicode="e" horiz-adv-x="1214" d="M82 514q0 155 71 278t191.5 190t265.5 67q123 0 224.5 -45t167.5 -121.5t102.5 -177t36.5 -213.5v-35q0 -21 -21 -21h-780q15 -105 87 -170t183 -65q176 0 252 127q11 18 29 18h209q14 0 14 -14q0 -9 -4 -21q-129 -331 -502 -331q-225 0 -375.5 149.5t-150.5 384.5z M348 641h531q-29 87 -96.5 136.5t-172.5 49.5q-89 0 -160.5 -49.5t-101.5 -136.5z" />
<glyph unicode="f" horiz-adv-x="765" d="M25 827v181q0 20 20 20h164v88q0 159 89 248.5t245 89.5q116 0 213 -43q11 -4 13.5 -11.5t2.5 -23.5v-176q0 -16 -12 -16q-7 0 -17 4q-96 45 -165 45q-123 0 -123 -137v-68h282q21 0 21 -20v-181q0 -20 -21 -20h-282v-787q0 -20 -21 -20h-205q-20 0 -20 20v787h-164 q-20 0 -20 20z" />
<glyph unicode="g" horiz-adv-x="1191" d="M74 526q0 232 131 377.5t340 145.5q168 0 286 -103v62q0 20 21 20h205q20 0 20 -20v-906q0 -264 -128.5 -396t-373.5 -132q-180 0 -305.5 95t-140.5 257q0 21 21 21h204q18 0 21 -21q14 -69 72 -100t141 -31q122 0 182.5 72t60.5 199v36q-64 -53 -127 -75.5t-151 -22.5 q-215 0 -347 145t-132 377zM336 526q0 -132 70 -216.5t188 -84.5q117 0 185.5 84.5t68.5 216.5t-68.5 216.5t-185.5 84.5q-118 0 -188 -84.5t-70 -216.5z" />
<glyph unicode="h" horiz-adv-x="1183" d="M135 20v1393q0 21 21 21h204q21 0 21 -21v-483q129 119 319 119q174 0 271.5 -91.5t97.5 -283.5v-654q0 -20 -20 -20h-205q-21 0 -21 20v598q0 209 -182 209q-109 0 -184.5 -91t-75.5 -255v-461q0 -20 -21 -20h-204q-21 0 -21 20z" />
<glyph unicode="i" horiz-adv-x="438" d="M82 1180v233q0 21 20 21h234q20 0 20 -21v-233q0 -21 -20 -21h-234q-20 0 -20 21zM96 20v988q0 20 21 20h205q20 0 20 -20v-988q0 -20 -20 -20h-205q-21 0 -21 20z" />
<glyph unicode="j" horiz-adv-x="438" d="M37 -328q33 84 46 140.5t13 140.5v1055q0 20 21 20h205q20 0 20 -20v-1063q0 -80 -13.5 -152t-26 -107t-38.5 -96q-6 -15 -18 -15q-3 0 -6 1l-189 72q-15 5 -15 16q0 4 1 8zM82 1180v233q0 21 20 21h234q20 0 20 -21v-233q0 -21 -20 -21h-234q-20 0 -20 21z" />
<glyph unicode="k" horiz-adv-x="1081" d="M135 20v1393q0 21 21 21h204q21 0 21 -21v-723l342 320q18 18 33 18h248q16 0 16 -14q0 -9 -8 -17l-357 -344l406 -622q4 -6 4 -15q0 -16 -18 -16h-230q-23 0 -33 18l-307 474l-96 -91v-381q0 -20 -21 -20h-204q-21 0 -21 20z" />
<glyph unicode="l" horiz-adv-x="487" d="M121 20v1393q0 21 20 21h205q21 0 21 -21v-1393q0 -20 -21 -20h-205q-20 0 -20 20z" />
<glyph unicode="m" horiz-adv-x="1630" d="M135 20v988q0 20 21 20h204q21 0 21 -20v-76q114 117 252 117q91 0 151 -30.5t105 -96.5q139 127 313 127q155 0 234.5 -95t79.5 -266v-668q0 -20 -21 -20h-205q-20 0 -20 20v633q0 97 -31.5 135.5t-97.5 38.5q-94 0 -143.5 -90t-49.5 -260v-457q0 -20 -20 -20h-205 q-21 0 -21 20v623q0 103 -31.5 143.5t-101.5 40.5q-87 0 -137.5 -87t-50.5 -263v-457q0 -20 -21 -20h-204q-21 0 -21 20z" />
<glyph unicode="n" d="M135 20v988q0 20 21 20h204q21 0 21 -20v-74q138 115 309 115q167 0 263 -93.5t96 -253.5v-682q0 -20 -21 -20h-205q-20 0 -20 20v594q0 112 -44 162.5t-132 50.5q-106 0 -176 -85t-70 -257v-465q0 -20 -21 -20h-204q-21 0 -21 20z" />
<glyph unicode="o" horiz-adv-x="1249" d="M76 514q0 232 156.5 383.5t392.5 151.5t392.5 -151.5t156.5 -383.5t-156.5 -383t-392.5 -151t-392.5 151t-156.5 383zM338 514q0 -141 79.5 -227t207.5 -86t207 86t79 227t-79 227t-207 86t-207.5 -86t-79.5 -227z" />
<glyph unicode="p" horiz-adv-x="1220" d="M135 -385v1393q0 20 21 20h204q21 0 21 -20v-64q130 105 295 105q209 0 338 -145t129 -390t-129 -389.5t-338 -144.5q-167 0 -295 102v-467q0 -21 -21 -21h-204q-21 0 -21 21zM369 514q0 -136 69.5 -224.5t188.5 -88.5t188.5 88.5t69.5 224.5t-69.5 224.5t-188.5 88.5 t-188.5 -88.5t-69.5 -224.5z" />
<glyph unicode="q" horiz-adv-x="1220" d="M78 514q0 245 129 390t338 145q165 0 295 -105v64q0 20 20 20h205q20 0 20 -20v-1393q0 -21 -20 -21h-205q-20 0 -20 21v467q-128 -102 -295 -102q-209 0 -338 144.5t-129 389.5zM336 514q0 -136 69.5 -224.5t188.5 -88.5t188.5 88.5t69.5 224.5t-69.5 224.5t-188.5 88.5 t-188.5 -88.5t-69.5 -224.5z" />
<glyph unicode="r" horiz-adv-x="884" d="M135 20v988q0 20 21 20h204q21 0 21 -20v-56q104 97 252 97q91 0 188 -33q25 -10 25 -37v-191q0 -22 -17 -22q-4 0 -14 4q-117 57 -211 57q-106 0 -164.5 -62t-58.5 -214v-531q0 -20 -21 -20h-204q-21 0 -21 20z" />
<glyph unicode="s" horiz-adv-x="1024" d="M61 342q0 20 21 20h207q17 0 20 -20q13 -70 70 -105.5t141 -35.5q79 0 130.5 26t51.5 74q0 44 -59 75.5t-199 55.5q-184 32 -271 105.5t-87 191.5q0 67 24 121.5t63.5 91t93 61t110 35.5t117.5 11q184 0 301 -89t129 -227q0 -20 -21 -20h-207q-19 0 -28 20 q-47 103 -183 103q-66 0 -109.5 -25.5t-43.5 -75.5q0 -28 18.5 -48.5t75 -41t156.5 -37.5q89 -15 153 -37.5t113.5 -57t74.5 -86.5t25 -122q0 -145 -121 -235t-315 -90q-195 0 -317 98t-134 264z" />
<glyph unicode="t" horiz-adv-x="860" d="M29 827v181q0 20 20 20h176v295q0 20 21 20h205q20 0 20 -20v-295h309q21 0 21 -20v-181q0 -20 -21 -20h-309v-438q0 -85 33 -126.5t108 -41.5q101 0 181 30q6 2 14 2q14 0 14 -18v-168q0 -11 -0.5 -16t-4 -10.5t-11.5 -8.5q-82 -32 -236 -32q-153 0 -248.5 89.5 t-95.5 254.5v483h-176q-20 0 -20 20z" />
<glyph unicode="u" d="M119 326v682q0 20 20 20h205q21 0 21 -20v-594q0 -112 44 -162.5t132 -50.5q106 0 175.5 85t69.5 257v465q0 20 21 20h205q20 0 20 -20v-988q0 -20 -20 -20h-205q-21 0 -21 20v74q-137 -114 -309 -114q-167 0 -262.5 93t-95.5 253z" />
<glyph unicode="v" horiz-adv-x="995" d="M-8 1010q0 18 18 18h217q23 0 29 -20l242 -693l241 693q6 20 29 20h217q19 0 19 -18q0 -6 -3 -15l-368 -975q-9 -20 -25 -20h-221q-16 0 -25 20l-368 975q-2 8 -2 15z" />
<glyph unicode="w" horiz-adv-x="1527" d="M-4 1014q0 14 16 14h211q14 0 20 -4.5t9 -15.5l184 -691l199 641q3 12 7 16.5t15 4.5h213q11 0 15.5 -4.5t7.5 -16.5l199 -641l184 691q3 11 9 15.5t20 4.5h211q16 0 16 -14q0 -9 -2 -17l-303 -977q-5 -20 -27 -20h-223q-21 0 -27 20l-186 629l-186 -629q-6 -20 -27 -20 h-223q-22 0 -27 20l-303 977q-2 8 -2 17z" />
<glyph unicode="x" horiz-adv-x="995" d="M-4 10q0 8 6 17l352 512l-315 462q-4 8 -4 13q0 14 14 14h240q19 0 28 -14l181 -271l180 271q9 14 29 14h239q15 0 15 -14q0 -3 -5 -13l-317 -462l354 -512q6 -9 6 -17q0 -10 -12 -10h-254q-14 0 -28 20l-207 312l-207 -312q-14 -20 -29 -20h-254q-12 0 -12 10z" />
<glyph unicode="y" horiz-adv-x="991" d="M-4 1012q0 16 16 16h238q20 0 26 -20l246 -646l199 646q3 11 8.5 15.5t18.5 4.5h225q16 0 16 -14q0 -9 -2 -15l-379 -1099q-63 -182 -154 -254t-206 -72q-125 0 -199 33q-20 11 -20 33v180q0 20 16 20q11 0 66.5 -22.5t97.5 -22.5q77 0 124 52.5t81 175.5l-414 972 q-4 12 -4 17z" />
<glyph unicode="z" horiz-adv-x="989" d="M39 20v173q0 14 12 30l545 584h-510q-20 0 -20 20v181q0 20 20 20h795q20 0 20 -20v-172q0 -25 -16 -43l-535 -572h570q20 0 20 -20v-181q0 -20 -20 -20h-861q-20 0 -20 20z" />
<glyph unicode="{" horiz-adv-x="794" d="M39 416v196q0 21 20 21h60q123 0 123 137v285q0 207 85.5 293t268.5 86h96q21 0 21 -21v-196q0 -21 -21 -21h-59q-73 0 -105 -42t-32 -130v-338q0 -76 -29.5 -113.5t-99.5 -58.5q70 -21 99.5 -58.5t29.5 -113.5v-338q0 -88 32 -130t105 -42h59q21 0 21 -20v-197 q0 -21 -21 -21h-96q-183 0 -268.5 86t-85.5 293v285q0 137 -123 137h-60q-20 0 -20 21z" />
<glyph unicode="|" horiz-adv-x="516" d="M131 -184v1597q0 21 21 21h213q20 0 20 -21v-1597q0 -21 -20 -21h-213q-21 0 -21 21z" />
<glyph unicode="}" horiz-adv-x="794" d="M82 -188q0 20 20 20h60q73 0 105 42t32 130v338q0 76 29.5 113.5t99.5 58.5q-70 21 -99.5 58.5t-29.5 113.5v338q0 88 -32 130t-105 42h-60q-20 0 -20 21v196q0 21 20 21h97q183 0 268.5 -86t85.5 -293v-285q0 -137 123 -137h59q21 0 21 -21v-196q0 -21 -21 -21h-59 q-123 0 -123 -137v-285q0 -207 -85.5 -293t-268.5 -86h-97q-20 0 -20 21v197z" />
<glyph unicode="~" horiz-adv-x="1112" d="M78 752q0 14 18 26q46 34 119 56t131 22q73 0 133.5 -13t94.5 -29t78 -29t87 -13q82 0 156 51q8 4 14 4q11 0 21 -16l98 -168q2 -4 2 -8q0 -15 -18 -27q-46 -34 -119 -56t-131 -22q-73 0 -133.5 13t-94.5 29t-78 29t-87 13q-82 0 -156 -51q-8 -4 -14 -4q-11 0 -21 16 l-98 168q-2 4 -2 9z" />
<glyph unicode="&#xa1;" horiz-adv-x="618" d="M170 770v238q0 20 20 20h238q21 0 21 -20v-238q0 -20 -21 -20h-238q-20 0 -20 20zM182 -385v997q0 21 21 21h213q20 0 20 -21v-997q0 -21 -20 -21h-213q-21 0 -21 21z" />
<glyph unicode="&#xa2;" horiz-adv-x="1161" d="M74 717q0 202 112 341.5t295 178.5v176q0 21 21 21h196q21 0 21 -21v-176q153 -29 252.5 -126t120.5 -226q2 -8 2 -21q0 -12 -15 -12h-200q-22 0 -29 18q-36 99 -131 138v-584q94 39 131 139q7 19 29 19h200q15 0 15 -13q0 -12 -2 -20q-21 -131 -120.5 -228t-252.5 -126 v-175q0 -20 -21 -20h-196q-21 0 -21 20v175q-183 39 -295 179.5t-112 342.5zM328 717q0 -106 41 -183t112 -110v584q-72 -34 -112.5 -109.5t-40.5 -181.5z" />
<glyph unicode="&#xa3;" horiz-adv-x="1204" d="M66 602v197q0 20 20 20h109q-35 116 -35 213q0 184 127.5 303t318.5 119q227 0 352 -119.5t125 -310.5q0 -20 -20 -20h-213q-18 0 -21 20q-29 193 -223 193q-78 0 -135 -50.5t-57 -134.5q0 -106 43 -213h401q21 0 21 -20v-197q0 -20 -21 -20h-352q4 -28 4 -43 q0 -74 -32.5 -153.5t-90.5 -147.5h715q20 0 20 -21v-197q0 -20 -20 -20h-971q-20 0 -20 20v181q0 23 16 41q66 75 97.5 146.5t31.5 158.5q0 23 -2 35h-168q-20 0 -20 20z" />
<glyph unicode="&#xa4;" horiz-adv-x="1105" d="M86 201q-14 14 0 28l107 107q-54 93 -54 203q0 109 54 202l-107 107q-14 14 0 29l129 129q15 14 29 0l114 -113q85 43 195 43t195 -43l114 113q14 14 29 0l129 -129q14 -15 0 -29l-107 -107q54 -93 54 -202q0 -110 -54 -203l107 -107q14 -14 0 -28l-129 -129 q-15 -14 -29 0l-114 112q-85 -43 -195 -43t-195 43l-114 -112q-14 -14 -29 0zM362 539q0 -86 53 -138.5t138 -52.5t137.5 52.5t52.5 138.5t-52.5 138t-137.5 52t-138 -52t-53 -138z" />
<glyph unicode="&#xa5;" horiz-adv-x="1118" d="M-12 1421q0 13 14 13h240q19 0 26 -17l291 -645l291 645q7 17 27 17h239q14 0 14 -13q0 -4 -2 -8l-340 -696h248q21 0 21 -21v-180q0 -20 -21 -20h-348v-76h307q21 0 21 -21v-180q0 -20 -21 -20h-307v-179q0 -20 -20 -20h-217q-21 0 -21 20v179h-291q-20 0 -20 20v180 q0 21 20 21h291v76h-332q-20 0 -20 20v180q0 21 20 21h230l-338 696q-2 4 -2 8z" />
<glyph unicode="&#xa6;" horiz-adv-x="516" d="M131 -385v770q0 21 21 21h213q20 0 20 -21v-770q0 -21 -20 -21h-213q-21 0 -21 21zM131 643v770q0 21 21 21h213q20 0 20 -21v-770q0 -20 -20 -20h-213q-21 0 -21 20z" />
<glyph unicode="&#xa7;" horiz-adv-x="1030" d="M68 -20q0 20 20 20h209q17 0 20 -20q10 -83 63.5 -125.5t131.5 -42.5q79 0 127.5 39.5t48.5 119.5q0 66 -54.5 117t-187.5 123q-91 49 -144 81.5t-102 70.5t-72 74t-36.5 81.5t-13.5 104.5t23 104.5t71 97.5q-61 65 -78.5 127t-17.5 142q0 164 123 262t299 98 q104 0 189.5 -34t140 -90.5t84.5 -129t30 -151.5q0 -21 -20 -21h-209q-18 0 -21 21q-10 83 -63.5 125.5t-130.5 42.5q-79 0 -127.5 -40t-48.5 -120q0 -66 54.5 -117t186.5 -123q91 -49 144 -81t102 -70t72.5 -74t37 -81.5t13.5 -104.5q0 -60 -23.5 -107.5t-72.5 -97.5 q62 -65 80 -126t18 -141q0 -164 -123 -262t-299 -98q-103 0 -189 34t-140.5 91t-84.5 129.5t-30 151.5zM332 600q0 -31 17 -55t82.5 -69t201.5 -122q45 32 45 74q0 31 -17 55t-83 69t-203 122q-43 -34 -43 -74z" />
<glyph unicode="&#xa8;" horiz-adv-x="872" d="M123 1192v221q0 21 20 21h222q20 0 20 -21v-221q0 -21 -20 -21h-222q-20 0 -20 21zM487 1192v221q0 21 21 21h221q21 0 21 -21v-221q0 -21 -21 -21h-221q-21 0 -21 21z" />
<glyph unicode="&#xa9;" horiz-adv-x="1638" d="M106 717q0 138 40.5 258t110 206.5t161 149t194 93t207.5 30.5t207.5 -30.5t194 -93t161 -149t110 -206.5t40.5 -258t-40.5 -258t-110 -206.5t-161 -149t-194 -93t-207.5 -30.5t-207.5 30.5t-194 93t-161 149t-110 206.5t-40.5 258zM205 717q0 -126 35 -233.5t94 -183.5 t138 -129.5t167 -79t180 -25.5t180 25.5t167 79t138.5 129t94.5 183.5t35 234t-35 234t-94.5 183.5t-138.5 129t-167 79t-180 25.5t-180 -25.5t-167 -79t-138 -129.5t-94 -183.5t-35 -233.5zM389 717q0 115 37 208.5t98.5 150.5t137 87.5t157.5 30.5q157 0 268.5 -83 t137.5 -222q0 -21 -23 -21h-49q-23 0 -29 21q-24 99 -104 159t-201 60q-136 0 -234 -105t-98 -286t98 -286t234 -105q121 0 201 60t104 159q6 20 29 20h49q23 0 23 -20q-26 -139 -137.5 -222t-268.5 -83q-82 0 -157.5 30.5t-137 87.5t-98.5 150.5t-37 208.5z" />
<glyph unicode="&#xaa;" horiz-adv-x="946" d="M74 1053q0 180 104 288.5t256 108.5q124 0 213 -66v35q0 15 15 15h155q14 0 14 -15v-735q0 -14 -14 -14h-155q-15 0 -15 14v37q-84 -66 -213 -66q-152 0 -256 108t-104 290zM266 1053q0 -103 53 -168.5t144 -65.5q89 0 142.5 65.5t53.5 168.5q0 101 -53.5 166t-142.5 65 q-91 0 -144 -64.5t-53 -166.5z" />
<glyph unicode="&#xab;" horiz-adv-x="1126" d="M74 492v139q0 20 20 37l479 413q6 6 13 6q12 0 12 -14v-229q0 -21 -14 -33l-279 -250l279 -250q14 -12 14 -32v-230q0 -14 -12 -14q-7 0 -13 6l-479 414q-20 17 -20 37zM510 492v139q0 20 20 37l480 413q6 6 12 6q12 0 12 -14v-229q0 -21 -14 -33l-279 -250l279 -250 q14 -12 14 -32v-230q0 -14 -12 -14q-6 0 -12 6l-480 414q-20 17 -20 37z" />
<glyph unicode="&#xac;" horiz-adv-x="1142" d="M106 647v180q0 21 21 21h864q21 0 21 -21v-446q0 -21 -21 -21h-205q-20 0 -20 21v246h-639q-21 0 -21 20z" />
<glyph unicode="&#xad;" horiz-adv-x="1052" d="M104 606v189q0 20 21 20h803q20 0 20 -20v-189q0 -20 -20 -20h-803q-21 0 -21 20z" />
<glyph unicode="&#xae;" horiz-adv-x="1638" d="M106 717q0 138 40.5 258t110 206.5t161 149t194 93t207.5 30.5t207.5 -30.5t194 -93t161 -149t110 -206.5t40.5 -258t-40.5 -258t-110 -206.5t-161 -149t-194 -93t-207.5 -30.5t-207.5 30.5t-194 93t-161 149t-110 206.5t-40.5 258zM205 717q0 -126 35 -233.5t94 -183.5 t138 -129.5t167 -79t180 -25.5t180 25.5t167 79t138.5 129t94.5 183.5t35 234t-35 234t-94.5 183.5t-138.5 129t-167 79t-180 25.5t-180 -25.5t-167 -79t-138 -129.5t-94 -183.5t-35 -233.5zM537 272v893q0 23 22 23h279q145 0 221 -71t76 -189q0 -95 -51 -161t-138 -91 l201 -404q4 -8 4 -14q0 -8 -12 -8h-58q-23 0 -32 18l-201 396h-213v-392q0 -22 -23 -22h-53q-22 0 -22 22zM635 750h217q184 0 184 178q0 174 -184 174h-217v-352z" />
<glyph unicode="&#xaf;" horiz-adv-x="610" d="M63 1200v184q0 21 21 21h442q21 0 21 -21v-184q0 -20 -21 -20h-442q-21 0 -21 20z" />
<glyph unicode="&#xb0;" horiz-adv-x="921" d="M80 1083q0 164 107.5 267.5t273.5 103.5t273.5 -103.5t107.5 -267.5t-107.5 -267t-273.5 -103t-273.5 103t-107.5 267zM287 1083q0 -84 48.5 -133t125.5 -49q78 0 127 48.5t49 133.5t-49 134t-127 49q-77 0 -125.5 -49t-48.5 -134z" />
<glyph unicode="&#xb1;" horiz-adv-x="1171" d="M104 20v189q0 20 21 20h922q20 0 20 -20v-189q0 -20 -20 -20h-922q-21 0 -21 20zM104 688v189q0 20 21 20h346v346q0 21 21 21h188q20 0 20 -21v-346h347q20 0 20 -20v-189q0 -20 -20 -20h-347v-346q0 -21 -20 -21h-188q-21 0 -21 21v346h-346q-21 0 -21 20z" />
<glyph unicode="&#xb2;" horiz-adv-x="724" d="M84 688v94q0 19 12 29l318 254q35 29 49 58t14 69t-27 65t-75 25q-43 0 -76.5 -25.5t-40.5 -70.5q-3 -21 -20 -21h-127q-21 0 -21 21q3 107 83.5 183.5t201.5 76.5q119 0 193.5 -68t74.5 -159q0 -90 -27.5 -141.5t-97.5 -110.5l-162 -136h283q20 0 20 -20v-123 q0 -20 -20 -20h-535q-20 0 -20 20z" />
<glyph unicode="&#xb3;" horiz-adv-x="729" d="M74 903q0 21 20 21h137q10 0 14 -4.5t7 -16.5q24 -84 115 -84q44 0 69 22.5t25 61.5q0 86 -103 86h-75q-21 0 -21 21v118q0 21 21 21h59q46 0 69 21t23 57q0 28 -20 45.5t-58 17.5q-70 0 -96 -73q-3 -10 -6.5 -13.5t-13.5 -3.5h-125q-21 0 -21 19q6 100 79 163.5 t183 63.5q115 0 182.5 -60.5t67.5 -152.5q0 -47 -22 -87.5t-58 -64.5q113 -57 113 -174q0 -125 -79.5 -188.5t-201.5 -63.5q-118 0 -201 73t-83 175z" />
<glyph unicode="&#xb4;" horiz-adv-x="776" d="M164 1141.5q-3 6.5 2 13.5l141 258q12 21 31 21h260q10 0 13 -7t-3 -14l-211 -260q-15 -18 -37 -18h-184q-9 0 -12 6.5z" />
<glyph unicode="&#xb6;" horiz-adv-x="1298" d="M33 1040q0 189 125 291.5t338 102.5h745q21 0 21 -21v-196q0 -21 -21 -21h-119v-1380q0 -21 -20 -21h-197q-20 0 -20 21v1380h-133v-1380q0 -21 -21 -21h-196q-21 0 -21 21v817h-25q-215 0 -335.5 109t-120.5 298z" />
<glyph unicode="&#xb7;" horiz-adv-x="593" d="M164 618v222q0 20 20 20h222q20 0 20 -20v-222q0 -20 -20 -20h-222q-20 0 -20 20z" />
<glyph unicode="&#xb8;" horiz-adv-x="557" d="M55 -295q0 21 21 21q2 0 63 -13.5t131 -13.5q72 0 72 41q0 37 -51 37q-43 0 -121 -19q-8 -2 -14 -2q-9 0 -15 6l-47 45q-6 6 -6 15q0 6 2 12l64 223q6 21 20 21h131q11 0 16 -6t1 -15l-82 -166q54 15 104 15q91 0 139.5 -44t48.5 -118q0 -84 -60 -127t-175 -43 q-136 0 -221 20q-12 3 -16.5 7t-4.5 14v90z" />
<glyph unicode="&#xb9;" horiz-adv-x="454" d="M35 1151v149q0 13 14 21l176 104q18 9 31 9h78q20 0 20 -21v-725q0 -20 -20 -20h-127q-21 0 -21 20v520l-116 -67q-12 -6 -19 -6q-16 0 -16 16z" />
<glyph unicode="&#xba;" horiz-adv-x="946" d="M61 1053q0 174 117 287.5t293 113.5q178 0 295 -113.5t117 -287.5t-117 -287t-295 -113q-176 0 -293 113t-117 287zM256 1053q0 -105 59.5 -170.5t155.5 -65.5t155.5 65.5t59.5 170.5t-59.5 170t-155.5 65t-155.5 -65t-59.5 -170z" />
<glyph unicode="&#xbb;" horiz-adv-x="1126" d="M92 49v230q0 20 14 32l279 250l-279 250q-14 12 -14 33v229q0 14 12 14q7 0 13 -6l479 -413q20 -17 20 -37v-139q0 -20 -20 -37l-479 -414q-6 -6 -13 -6q-12 0 -12 14zM528 49v230q0 19 15 32l278 250l-278 250q-15 12 -15 33v229q0 14 13 14q6 0 12 -6l479 -413 q21 -18 21 -37v-139q0 -19 -21 -37l-479 -414q-6 -6 -12 -6q-13 0 -13 14z" />
<glyph unicode="&#xbc;" horiz-adv-x="1642" d="M121 1151v149q0 13 14 21l176 104q18 9 31 9h78q20 0 20 -21v-725q0 -20 -20 -20h-127q-21 0 -21 20v520l-116 -67q-12 -6 -19 -6q-16 0 -16 16zM215 117l1145 1310q13 16 29 0l90 -81q15 -15 4 -29l-1145 -1311q-13 -16 -29 0l-90 82q-15 15 -4 29zM874 133v113 q0 10 9 24l346 482q11 14 22 14h113q20 0 20 -21v-464h105q20 0 20 -21v-127q0 -20 -20 -20h-105v-93q0 -20 -20 -20h-123q-20 0 -20 20v93h-326q-21 0 -21 20zM1075 281h146v206z" />
<glyph unicode="&#xbd;" horiz-adv-x="1789" d="M121 1151v149q0 13 14 21l176 104q18 9 31 9h78q20 0 20 -21v-725q0 -20 -20 -20h-127q-21 0 -21 20v520l-116 -67q-12 -6 -19 -6q-16 0 -16 16zM215 117l1145 1310q13 16 29 0l90 -81q15 -15 4 -29l-1145 -1311q-13 -16 -29 0l-90 82q-15 15 -4 29zM1087 20v95 q0 18 13 28l317 254q35 29 49.5 58t14.5 69q0 39 -27.5 64.5t-75.5 25.5q-43 0 -76 -25.5t-40 -70.5q-3 -20 -21 -20h-127q-20 0 -20 20q3 107 83 183.5t201 76.5q120 0 194.5 -68t74.5 -159q0 -90 -27.5 -141.5t-97.5 -110.5l-162 -135h282q21 0 21 -21v-123q0 -20 -21 -20 h-534q-21 0 -21 20z" />
<glyph unicode="&#xbe;" horiz-adv-x="1679" d="M92 903q0 21 21 21h137q10 0 13 -4.5t7 -16.5q24 -84 115 -84q44 0 69 22.5t25 61.5q0 86 -102 86h-76q-20 0 -20 21v118q0 21 20 21h59q46 0 69.5 21t23.5 57q0 28 -20 45.5t-58 17.5q-70 0 -96 -73q-3 -10 -7 -13.5t-14 -3.5h-125q-20 0 -20 19q6 100 79 163.5 t183 63.5q115 0 182.5 -60.5t67.5 -152.5q0 -47 -22 -87.5t-58 -64.5q112 -57 112 -174q0 -125 -79 -188.5t-201 -63.5q-118 0 -201.5 73t-83.5 175zM281 117l1144 1310q13 16 29 0l90 -81q15 -15 4 -29l-1145 -1311q-12 -16 -28 0l-90 82q-15 15 -4 29zM940 133v113 q0 12 8 24l346 482q10 14 23 14h113q20 0 20 -21v-464h104q21 0 21 -21v-127q0 -20 -21 -20h-104v-93q0 -20 -20 -20h-123q-21 0 -21 20v93h-325q-21 0 -21 20zM1141 281h145v206z" />
<glyph unicode="&#xbf;" d="M111 -63q0 73 18.5 132t47.5 99t64 74t70.5 65.5t64.5 65.5t47.5 82t18.5 106v51q0 21 21 21h213q20 0 20 -21v-51q0 -75 -18.5 -137t-47.5 -105t-64.5 -79t-70.5 -66t-64 -59t-47.5 -65t-18.5 -77q0 -66 49 -111.5t133 -45.5q90 0 154 49t85 143q3 12 7 16.5t14 4.5h209 q20 0 20 -21q-3 -82 -37 -159.5t-94 -139t-151.5 -98.5t-200.5 -37q-200 0 -321 104t-121 259zM430 770v238q0 20 21 20h237q21 0 21 -20v-238q0 -20 -21 -20h-237q-21 0 -21 20z" />
<glyph unicode="&#xc0;" horiz-adv-x="1282" d="M-6 20q0 7 2 13l504 1380q2 7 3 9.5t3 6t5.5 4.5t8.5 1h242q10 0 13 -4.5t7 -16.5l504 -1380q2 -6 2 -13q0 -20 -22 -20h-224q-11 0 -16 4.5t-8 15.5l-123 359h-508l-123 -359q-3 -11 -8 -15.5t-16 -4.5h-224q-22 0 -22 20zM310.5 1832.5q3.5 6.5 13.5 6.5h260 q19 0 30 -20l142 -258q5 -7 1.5 -14t-12.5 -7h-184q-21 0 -37 19l-211 260q-6 7 -2.5 13.5zM469 616h344l-172 500z" />
<glyph unicode="&#xc1;" horiz-adv-x="1282" d="M-6 20q0 7 2 13l504 1380q2 7 3 9.5t3 6t5.5 4.5t8.5 1h242q10 0 13 -4.5t7 -16.5l504 -1380q2 -6 2 -13q0 -20 -22 -20h-224q-11 0 -16 4.5t-8 15.5l-123 359h-508l-123 -359q-3 -11 -8 -15.5t-16 -4.5h-224q-22 0 -22 20zM469 616h344l-172 500zM500 1547q-3 7 2 14 l141 258q11 20 31 20h260q10 0 13 -6.5t-3 -13.5l-211 -260q-16 -19 -37 -19h-184q-9 0 -12 7z" />
<glyph unicode="&#xc2;" horiz-adv-x="1282" d="M-6 20q0 7 2 13l504 1380q2 7 3 9.5t3 6t5.5 4.5t8.5 1h242q10 0 13 -4.5t7 -16.5l504 -1380q2 -6 2 -13q0 -20 -22 -20h-224q-11 0 -16 4.5t-8 15.5l-123 359h-508l-123 -359q-3 -11 -8 -15.5t-16 -4.5h-224q-22 0 -22 20zM302.5 1517.5q-3.5 6.5 2.5 14.5l221 291 q13 16 31 16h168q18 0 31 -16l221 -291q6 -8 2.5 -14.5t-12.5 -6.5h-193q-18 0 -37 19l-96 96l-96 -96q-19 -19 -37 -19h-193q-9 0 -12.5 6.5zM469 616h344l-172 500z" />
<glyph unicode="&#xc3;" horiz-adv-x="1282" d="M-6 20q0 7 2 13l504 1380q2 7 3 9.5t3 6t5.5 4.5t8.5 1h242q10 0 13 -4.5t7 -16.5l504 -1380q2 -6 2 -13q0 -20 -22 -20h-224q-11 0 -16 4.5t-8 15.5l-123 359h-508l-123 -359q-3 -11 -8 -15.5t-16 -4.5h-224q-22 0 -22 20zM246 1749q0 8 12 18q131 101 238 101 q54 0 96 -12.5t63.5 -27.5t54 -27.5t68.5 -12.5q57 0 131 49q9 6 17 6q9 0 20 -16l88 -121q4 -6 4 -14q0 -9 -12 -19q-129 -100 -238 -100q-54 0 -96 12.5t-63.5 27.5t-54 27.5t-68.5 12.5q-57 0 -131 -49q-11 -7 -17 -7q-9 0 -20 17l-88 121q-4 6 -4 14zM469 616h344 l-172 500z" />
<glyph unicode="&#xc4;" horiz-adv-x="1282" d="M-6 20q0 7 2 13l504 1380q2 7 3 9.5t3 6t5.5 4.5t8.5 1h242q10 0 13 -4.5t7 -16.5l504 -1380q2 -6 2 -13q0 -20 -22 -20h-224q-11 0 -16 4.5t-8 15.5l-123 359h-508l-123 -359q-3 -11 -8 -15.5t-16 -4.5h-224q-22 0 -22 20zM328 1597v222q0 20 20 20h221q21 0 21 -20 v-222q0 -20 -21 -20h-221q-20 0 -20 20zM469 616h344l-172 500zM692 1597v222q0 20 21 20h221q20 0 20 -20v-222q0 -20 -20 -20h-221q-21 0 -21 20z" />
<glyph unicode="&#xc5;" horiz-adv-x="1282" d="M-6 20q0 7 2 13l504 1380q2 7 3 9.5t3 6t5.5 4.5t8.5 1h242q10 0 13 -4.5t7 -16.5l504 -1380q2 -6 2 -13q0 -20 -22 -20h-224q-11 0 -16 4.5t-8 15.5l-123 359h-508l-123 -359q-3 -11 -8 -15.5t-16 -4.5h-224q-22 0 -22 20zM430 1679q0 88 59 144.5t152 56.5t152 -56.5 t59 -144.5t-59 -144t-152 -56t-152 56t-59 144zM469 616h344l-172 500zM569 1679q0 -33 20 -51t52 -18t52 18t20 51t-20 51.5t-52 18.5t-52 -18.5t-20 -51.5z" />
<glyph unicode="&#xc6;" horiz-adv-x="1792" d="M-2 20q0 7 2 13l555 1380q9 21 25 21h1077q20 0 20 -21v-196q0 -21 -20 -21h-639v-324h577q21 0 21 -20v-197q0 -20 -21 -20h-577v-397h670q20 0 20 -21v-197q0 -20 -20 -20h-908q-20 0 -20 20v357h-357l-139 -357q-3 -11 -8 -15.5t-16 -4.5h-220q-22 0 -22 20zM496 614 h264v582h-37z" />
<glyph unicode="&#xc7;" horiz-adv-x="1447" d="M78 717q0 150 38.5 274.5t103 208.5t151 142.5t180.5 85t194 26.5q168 0 306 -61.5t227 -179t108 -273.5q0 -12 -5 -16t-17 -4h-207q-18 0 -24 20q-79 277 -388 277q-76 0 -146 -31.5t-128 -91t-92.5 -157.5t-34.5 -220t34.5 -220t92.5 -157.5t128 -91t146 -31.5 q309 0 388 277q6 20 24 20h207q12 0 17 -4t5 -16q-29 -231 -202.5 -370t-423.5 -144l-43 -89q54 15 104 15q91 0 140 -44t49 -118q0 -84 -60.5 -127t-175.5 -43q-136 0 -221 20q-12 3 -16.5 7t-4.5 14v90q0 21 21 21q2 0 63.5 -13.5t131.5 -13.5q71 0 71 41q0 37 -51 37 q-43 0 -121 -19q-8 -2 -14 -2q-9 0 -15 6l-47 45q-6 6 -6 15q0 6 2 12l45 158q-108 21 -201.5 74t-169.5 140t-119.5 218.5t-43.5 292.5z" />
<glyph unicode="&#xc8;" horiz-adv-x="1177" d="M125 20v1393q0 21 20 21h883q21 0 21 -21v-196q0 -21 -21 -21h-645v-324h584q20 0 20 -20v-197q0 -20 -20 -20h-584v-397h676q20 0 20 -21v-197q0 -20 -20 -20h-914q-20 0 -20 20zM304 1832.5q3 6.5 13 6.5h261q19 0 30 -20l142 -258q5 -7 1.5 -14t-12.5 -7h-184 q-21 0 -37 19l-211 260q-6 7 -3 13.5z" />
<glyph unicode="&#xc9;" horiz-adv-x="1196" d="M143 20v1393q0 21 21 21h883q20 0 20 -21v-196q0 -21 -20 -21h-646v-324h584q21 0 21 -20v-197q0 -20 -21 -20h-584v-397h676q21 0 21 -21v-197q0 -20 -21 -20h-913q-21 0 -21 20zM438.5 1547q-3.5 7 1.5 14l142 258q11 20 30 20h260q10 0 13.5 -6.5t-2.5 -13.5 l-211 -260q-16 -19 -37 -19h-184q-9 0 -12.5 7z" />
<glyph unicode="&#xca;" horiz-adv-x="1196" d="M143 20v1393q0 21 21 21h883q20 0 20 -21v-196q0 -21 -20 -21h-646v-324h584q21 0 21 -20v-197q0 -20 -21 -20h-584v-397h676q21 0 21 -21v-197q0 -20 -21 -20h-913q-21 0 -21 20zM272 1517.5q-4 6.5 2 14.5l222 291q13 16 30 16h168q18 0 31 -16l221 -291 q6 -8 2.5 -14.5t-12.5 -6.5h-193q-17 0 -36 19l-97 96l-96 -96q-19 -19 -37 -19h-192q-9 0 -13 6.5z" />
<glyph unicode="&#xcb;" horiz-adv-x="1177" d="M125 20v1393q0 21 20 21h883q21 0 21 -21v-196q0 -21 -21 -21h-645v-324h584q20 0 20 -20v-197q0 -20 -20 -20h-584v-397h676q20 0 20 -21v-197q0 -20 -20 -20h-914q-20 0 -20 20zM276 1597v222q0 20 21 20h221q21 0 21 -20v-222q0 -20 -21 -20h-221q-21 0 -21 20z M641 1597v222q0 20 21 20h221q20 0 20 -20v-222q0 -20 -20 -20h-221q-21 0 -21 20z" />
<glyph unicode="&#xcc;" horiz-adv-x="516" d="M-50 1832.5q3 6.5 13 6.5h260q20 0 31 -20l141 -258q5 -7 2 -14t-12 -7h-184q-21 0 -37 19l-211 260q-6 7 -3 13.5zM129 20v1393q0 21 21 21h217q20 0 20 -21v-1393q0 -20 -20 -20h-217q-21 0 -21 20z" />
<glyph unicode="&#xcd;" horiz-adv-x="516" d="M121 1547q-3 7 2 14l141 258q11 20 31 20h260q10 0 13 -6.5t-3 -13.5l-211 -260q-16 -19 -37 -19h-184q-9 0 -12 7zM129 20v1393q0 21 21 21h217q20 0 20 -21v-1393q0 -20 -20 -20h-217q-21 0 -21 20z" />
<glyph unicode="&#xce;" horiz-adv-x="516" d="M-80.5 1517.5q-3.5 6.5 2.5 14.5l221 291q13 16 31 16h168q18 0 31 -16l221 -291q6 -8 2.5 -14.5t-12.5 -6.5h-193q-18 0 -37 19l-96 96l-96 -96q-19 -19 -37 -19h-193q-9 0 -12.5 6.5zM129 20v1393q0 21 21 21h217q20 0 20 -21v-1393q0 -20 -20 -20h-217q-21 0 -21 20z " />
<glyph unicode="&#xcf;" horiz-adv-x="516" d="M-55 1597v222q0 20 20 20h221q21 0 21 -20v-222q0 -20 -21 -20h-221q-20 0 -20 20zM129 20v1393q0 21 21 21h217q20 0 20 -21v-1393q0 -20 -20 -20h-217q-21 0 -21 20zM309 1597v222q0 20 21 20h221q20 0 20 -20v-222q0 -20 -20 -20h-221q-21 0 -21 20z" />
<glyph unicode="&#xd0;" horiz-adv-x="1386" d="M23 618v197q0 21 20 21h141v577q0 21 21 21h434q111 0 210.5 -27.5t184.5 -85.5t147 -141.5t97 -202t35 -260.5t-35 -260.5t-97 -202t-147 -141.5t-184.5 -85.5t-210.5 -27.5h-434q-21 0 -21 20v578h-141q-20 0 -20 20zM442 238h185q191 0 305.5 121t114.5 358 t-114.5 358t-305.5 121h-185v-360h265q20 0 20 -21v-197q0 -20 -20 -20h-265v-360z" />
<glyph unicode="&#xd1;" horiz-adv-x="1425" d="M143 20v1393q0 21 21 21h219q22 0 33 -17l604 -971v967q0 21 20 21h222q20 0 20 -21v-1393q0 -20 -20 -20h-220q-21 0 -32 16l-604 971v-967q0 -20 -21 -20h-221q-21 0 -21 20zM324 1749q0 8 12 18q131 101 237 101q54 0 96 -12.5t64 -27.5t54.5 -27.5t68.5 -12.5 q57 0 131 49q9 6 17 6q9 0 20 -16l88 -121q4 -6 4 -14q0 -9 -12 -19q-129 -100 -238 -100q-54 0 -96 12.5t-63.5 27.5t-54 27.5t-68.5 12.5q-57 0 -131 -49q-11 -7 -17 -7q-9 0 -20 17l-88 121q-4 6 -4 14z" />
<glyph unicode="&#xd2;" horiz-adv-x="1572" d="M78 717q0 145 40 267.5t108 207.5t159 145t192.5 88.5t208.5 28.5t209 -28.5t193 -88.5t159 -145t108 -207.5t40 -267.5t-40 -267.5t-108 -207.5t-159 -145t-193 -88.5t-209 -28.5t-208.5 28.5t-192.5 88.5t-159 145t-108 207.5t-40 267.5zM344 717q0 -122 36.5 -219.5 t99 -157.5t140.5 -91.5t166 -31.5q70 0 134 19.5t120.5 60t98.5 99t66 141t24 180.5t-24 180.5t-66 141t-98.5 99t-120.5 60t-134 19.5q-88 0 -166 -31.5t-140.5 -91.5t-99 -157.5t-36.5 -219.5zM491 1832.5q3 6.5 13 6.5h260q20 0 31 -20l141 -258q5 -7 2 -14t-12 -7h-185 q-20 0 -36 19l-211 260q-6 7 -3 13.5z" />
<glyph unicode="&#xd3;" horiz-adv-x="1572" d="M78 717q0 145 40 267.5t108 207.5t159 145t192.5 88.5t208.5 28.5t209 -28.5t193 -88.5t159 -145t108 -207.5t40 -267.5t-40 -267.5t-108 -207.5t-159 -145t-193 -88.5t-209 -28.5t-208.5 28.5t-192.5 88.5t-159 145t-108 207.5t-40 267.5zM344 717q0 -122 36.5 -219.5 t99 -157.5t140.5 -91.5t166 -31.5q70 0 134 19.5t120.5 60t98.5 99t66 141t24 180.5t-24 180.5t-66 141t-98.5 99t-120.5 60t-134 19.5q-88 0 -166 -31.5t-140.5 -91.5t-99 -157.5t-36.5 -219.5zM606 1547q-3 7 2 14l142 258q11 20 30 20h260q10 0 13.5 -6.5t-2.5 -13.5 l-211 -260q-16 -19 -37 -19h-185q-9 0 -12 7z" />
<glyph unicode="&#xd4;" horiz-adv-x="1572" d="M78 717q0 145 40 267.5t108 207.5t159 145t192.5 88.5t208.5 28.5t209 -28.5t193 -88.5t159 -145t108 -207.5t40 -267.5t-40 -267.5t-108 -207.5t-159 -145t-193 -88.5t-209 -28.5t-208.5 28.5t-192.5 88.5t-159 145t-108 207.5t-40 267.5zM344 717q0 -122 36.5 -219.5 t99 -157.5t140.5 -91.5t166 -31.5q70 0 134 19.5t120.5 60t98.5 99t66 141t24 180.5t-24 180.5t-66 141t-98.5 99t-120.5 60t-134 19.5q-88 0 -166 -31.5t-140.5 -91.5t-99 -157.5t-36.5 -219.5zM448.5 1517.5q-3.5 6.5 2.5 14.5l221 291q13 16 30 16h168q18 0 31 -16 l221 -291q6 -8 2.5 -14.5t-12.5 -6.5h-192q-18 0 -37 19l-97 96l-96 -96q-19 -19 -37 -19h-192q-9 0 -12.5 6.5z" />
<glyph unicode="&#xd5;" horiz-adv-x="1572" d="M78 717q0 145 40 267.5t108 207.5t159 145t192.5 88.5t208.5 28.5t209 -28.5t193 -88.5t159 -145t108 -207.5t40 -267.5t-40 -267.5t-108 -207.5t-159 -145t-193 -88.5t-209 -28.5t-208.5 28.5t-192.5 88.5t-159 145t-108 207.5t-40 267.5zM344 717q0 -122 36.5 -219.5 t99 -157.5t140.5 -91.5t166 -31.5q70 0 134 19.5t120.5 60t98.5 99t66 141t24 180.5t-24 180.5t-66 141t-98.5 99t-120.5 60t-134 19.5q-88 0 -166 -31.5t-140.5 -91.5t-99 -157.5t-36.5 -219.5zM391 1749q0 8 12 18q131 101 238 101q54 0 96 -12.5t64 -27.5t54.5 -27.5 t68.5 -12.5q57 0 131 49q9 6 16 6q10 0 21 -16l88 -121q4 -6 4 -14q0 -9 -13 -19q-129 -100 -237 -100q-54 0 -96 12.5t-64 27.5t-54.5 27.5t-68.5 12.5q-57 0 -131 -49q-10 -7 -16 -7q-10 0 -21 17l-88 121q-4 6 -4 14z" />
<glyph unicode="&#xd6;" horiz-adv-x="1572" d="M78 717q0 145 40 267.5t108 207.5t159 145t192.5 88.5t208.5 28.5t209 -28.5t193 -88.5t159 -145t108 -207.5t40 -267.5t-40 -267.5t-108 -207.5t-159 -145t-193 -88.5t-209 -28.5t-208.5 28.5t-192.5 88.5t-159 145t-108 207.5t-40 267.5zM344 717q0 -122 36.5 -219.5 t99 -157.5t140.5 -91.5t166 -31.5q70 0 134 19.5t120.5 60t98.5 99t66 141t24 180.5t-24 180.5t-66 141t-98.5 99t-120.5 60t-134 19.5q-88 0 -166 -31.5t-140.5 -91.5t-99 -157.5t-36.5 -219.5zM473 1597v222q0 20 21 20h221q20 0 20 -20v-222q0 -20 -20 -20h-221 q-21 0 -21 20zM838 1597v222q0 20 20 20h221q21 0 21 -20v-222q0 -20 -21 -20h-221q-20 0 -20 20z" />
<glyph unicode="&#xd7;" horiz-adv-x="1036" d="M104 440q0 8 7 15l245 245l-245 246q-7 7 -7 15q0 7 7 14l133 133q8 8 14 8t14 -8l246 -246l246 246q8 8 14 8q7 0 15 -8l133 -133q6 -6 6 -14q0 -9 -6 -15l-246 -246l246 -245q6 -6 6 -15q0 -8 -6 -14l-133 -133q-8 -8 -15 -8q-6 0 -14 8l-246 246l-246 -246 q-8 -8 -14 -8t-14 8l-133 133q-7 7 -7 14z" />
<glyph unicode="&#xd8;" horiz-adv-x="1572" d="M78 717q0 145 40 267.5t108 207.5t159 145t192.5 88.5t208.5 28.5q171 0 310 -65l82 139q7 12 16 12q4 0 12 -4l88 -53q13 -8 13 -17q0 -4 -4 -12l-82 -139q128 -94 201 -244.5t73 -353.5q0 -145 -40 -267.5t-108 -207.5t-159 -145t-193 -88.5t-209 -28.5q-170 0 -309 65 l-82 -139q-7 -12 -16 -12q-4 0 -12 4l-88 53q-13 8 -13 16q0 5 4 13l82 139q-128 94 -201 244.5t-73 353.5zM344 717q0 -242 137 -379l492 840q-82 39 -187 39q-88 0 -166 -31.5t-140.5 -91.5t-99 -157.5t-36.5 -219.5zM600 256q82 -39 186 -39q70 0 134 19.5t120.5 60 t98.5 99t66 141t24 180.5q0 242 -137 379z" />
<glyph unicode="&#xd9;" horiz-adv-x="1310" d="M111 553v860q0 21 20 21h217q21 0 21 -21v-858q0 -171 76 -254.5t210 -83.5t210.5 83.5t76.5 254.5v858q0 21 21 21h217q20 0 20 -21v-860q0 -267 -149 -420t-396 -153t-395.5 153t-148.5 420zM359.5 1832.5q3.5 6.5 13.5 6.5h260q20 0 31 -20l141 -258q5 -7 2 -14 t-12 -7h-185q-21 0 -37 19l-211 260q-6 7 -2.5 13.5z" />
<glyph unicode="&#xda;" horiz-adv-x="1310" d="M111 553v860q0 21 20 21h217q21 0 21 -21v-858q0 -171 76 -254.5t210 -83.5t210.5 83.5t76.5 254.5v858q0 21 21 21h217q20 0 20 -21v-860q0 -267 -149 -420t-396 -153t-395.5 153t-148.5 420zM494 1547q-3 7 2 14l141 258q11 20 31 20h260q10 0 13 -6.5t-3 -13.5 l-211 -260q-16 -19 -37 -19h-184q-9 0 -12 7z" />
<glyph unicode="&#xdb;" horiz-adv-x="1310" d="M111 553v860q0 21 20 21h217q21 0 21 -21v-858q0 -171 76 -254.5t210 -83.5t210.5 83.5t76.5 254.5v858q0 21 21 21h217q20 0 20 -21v-860q0 -267 -149 -420t-396 -153t-395.5 153t-148.5 420zM317 1517.5q-4 6.5 2 14.5l222 291q13 16 30 16h168q18 0 31 -16l221 -291 q6 -8 2.5 -14.5t-12.5 -6.5h-193q-17 0 -36 19l-97 96l-96 -96q-19 -19 -37 -19h-192q-9 0 -13 6.5z" />
<glyph unicode="&#xdc;" horiz-adv-x="1310" d="M111 553v860q0 21 20 21h217q21 0 21 -21v-858q0 -171 76 -254.5t210 -83.5t210.5 83.5t76.5 254.5v858q0 21 21 21h217q20 0 20 -21v-860q0 -267 -149 -420t-396 -153t-395.5 153t-148.5 420zM342 1597v222q0 20 20 20h222q20 0 20 -20v-222q0 -20 -20 -20h-222 q-20 0 -20 20zM707 1597v222q0 20 20 20h221q21 0 21 -20v-222q0 -20 -21 -20h-221q-20 0 -20 20z" />
<glyph unicode="&#xdd;" horiz-adv-x="1118" d="M-12 1421q0 13 14 13h240q19 0 26 -17l291 -645l291 645q7 17 27 17h239q14 0 14 -13q0 -4 -2 -8l-440 -909v-484q0 -20 -20 -20h-217q-21 0 -21 20v484l-440 909q-2 4 -2 8zM410 1547q-3 7 2 14l141 258q11 20 31 20h260q10 0 13 -6.5t-3 -13.5l-211 -260 q-16 -19 -37 -19h-184q-9 0 -12 7z" />
<glyph unicode="&#xde;" horiz-adv-x="1241" d="M143 20v1393q0 21 21 21h217q20 0 20 -21v-285h293q230 0 356 -110.5t126 -300.5t-126 -301t-356 -111h-293v-285q0 -20 -20 -20h-217q-21 0 -21 20zM401 543h299q97 0 155 45t58 129t-58 129t-155 45h-299v-348z" />
<glyph unicode="&#xdf;" horiz-adv-x="1277" d="M25 827v181q0 20 20 20h141q0 201 119 313.5t313 112.5q180 0 292 -99.5t112 -248.5q0 -64 -18 -114t-43.5 -79t-51 -51t-43.5 -44.5t-18 -45.5q0 -26 27.5 -51t68.5 -46t89.5 -52t89.5 -65t68.5 -89.5t27.5 -122.5q0 -177 -101 -271.5t-266 -94.5q-91 0 -163.5 28.5 t-119.5 78.5t-73 115.5t-29 141.5q0 21 20 21h181q17 0 20 -21q28 -143 158 -143q57 0 92 39.5t35 99.5q0 38 -20.5 68.5t-53 52t-72 42t-79.5 44.5t-72.5 53t-53 73t-20.5 99q0 48 19 85.5t46.5 62.5t55 47.5t46.5 51.5t19 64q0 65 -45 107.5t-120 42.5q-85 0 -138 -63.5 t-53 -190.5v-959q0 -20 -20 -20h-205q-21 0 -21 20v787h-141q-20 0 -20 20z" />
<glyph unicode="&#xe0;" horiz-adv-x="1103" d="M80 322q0 162 118.5 253t295.5 91q99 0 251 -41v28q0 79 -49.5 126.5t-140.5 47.5q-135 0 -188 -96q-11 -18 -29 -18h-207q-14 0 -14 12t2 20q31 133 145.5 218.5t290.5 85.5q198 0 317 -107t119 -289v-444q0 -120 39 -189q11 -20 -14 -20h-250q-21 0 -21 20v60 q-55 -46 -122 -73t-170 -27q-161 0 -267 93.5t-106 248.5zM247 1427q3 7 13 7h260q19 0 31 -21l141 -258q5 -7 2 -13.5t-12 -6.5h-184q-22 0 -37 18l-211 260q-6 7 -3 14zM317 328q0 -60 47.5 -93.5t133.5 -33.5q98 0 172.5 60t74.5 155q-141 41 -241 41q-80 0 -133.5 -34 t-53.5 -95z" />
<glyph unicode="&#xe1;" horiz-adv-x="1103" d="M80 322q0 162 118.5 253t295.5 91q99 0 251 -41v28q0 79 -49.5 126.5t-140.5 47.5q-135 0 -188 -96q-11 -18 -29 -18h-207q-14 0 -14 12t2 20q31 133 145.5 218.5t290.5 85.5q198 0 317 -107t119 -289v-444q0 -120 39 -189q11 -20 -14 -20h-250q-21 0 -21 20v60 q-55 -46 -122 -73t-170 -27q-161 0 -267 93.5t-106 248.5zM317 328q0 -60 47.5 -93.5t133.5 -33.5q98 0 172.5 60t74.5 155q-141 41 -241 41q-80 0 -133.5 -34t-53.5 -95zM389 1141.5q-3 6.5 2 13.5l141 258q12 21 31 21h260q10 0 13.5 -7t-2.5 -14l-211 -260 q-15 -18 -37 -18h-185q-9 0 -12 6.5z" />
<glyph unicode="&#xe2;" horiz-adv-x="1103" d="M80 322q0 162 118.5 253t295.5 91q99 0 251 -41v28q0 79 -49.5 126.5t-140.5 47.5q-135 0 -188 -96q-11 -18 -29 -18h-207q-14 0 -14 12t2 20q31 133 145.5 218.5t290.5 85.5q198 0 317 -107t119 -289v-444q0 -120 39 -189q11 -20 -14 -20h-250q-21 0 -21 20v60 q-55 -46 -122 -73t-170 -27q-161 0 -267 93.5t-106 248.5zM216.5 1112q-3.5 6 2.5 14l221 291q14 17 31 17h168q17 0 31 -17l221 -291q6 -8 2.5 -14t-12.5 -6h-193q-19 0 -37 18l-96 97l-96 -97q-18 -18 -37 -18h-193q-9 0 -12.5 6zM317 328q0 -60 47.5 -93.5t133.5 -33.5 q98 0 172.5 60t74.5 155q-141 41 -241 41q-80 0 -133.5 -34t-53.5 -95z" />
<glyph unicode="&#xe3;" horiz-adv-x="1103" d="M80 322q0 162 118.5 253t295.5 91q99 0 251 -41v28q0 79 -49.5 126.5t-140.5 47.5q-135 0 -188 -96q-11 -18 -29 -18h-207q-14 0 -14 12t2 20q31 133 145.5 218.5t290.5 85.5q198 0 317 -107t119 -289v-444q0 -120 39 -189q11 -20 -14 -20h-250q-21 0 -21 20v60 q-55 -46 -122 -73t-170 -27q-161 0 -267 93.5t-106 248.5zM168 1343q0 9 12 19q129 100 238 100q54 0 96 -12.5t63.5 -27.5t54 -27.5t68.5 -12.5q55 0 131 50q9 6 17 6q9 0 20 -17l88 -121q5 -7 5 -14q0 -8 -13 -18q-131 -101 -237 -101q-54 0 -96 12.5t-64 27.5t-54.5 27.5 t-68.5 12.5q-57 0 -131 -49q-9 -6 -16 -6q-10 0 -21 16l-88 121q-4 6 -4 14zM317 328q0 -60 47.5 -93.5t133.5 -33.5q98 0 172.5 60t74.5 155q-141 41 -241 41q-80 0 -133.5 -34t-53.5 -95z" />
<glyph unicode="&#xe4;" horiz-adv-x="1103" d="M80 322q0 162 118.5 253t295.5 91q99 0 251 -41v28q0 79 -49.5 126.5t-140.5 47.5q-135 0 -188 -96q-11 -18 -29 -18h-207q-14 0 -14 12t2 20q31 133 145.5 218.5t290.5 85.5q198 0 317 -107t119 -289v-444q0 -120 39 -189q11 -20 -14 -20h-250q-21 0 -21 20v60 q-55 -46 -122 -73t-170 -27q-161 0 -267 93.5t-106 248.5zM242 1192v221q0 21 20 21h221q21 0 21 -21v-221q0 -21 -21 -21h-221q-20 0 -20 21zM317 328q0 -60 47.5 -93.5t133.5 -33.5q98 0 172.5 60t74.5 155q-141 41 -241 41q-80 0 -133.5 -34t-53.5 -95zM606 1192v221 q0 21 21 21h221q20 0 20 -21v-221q0 -21 -20 -21h-221q-21 0 -21 21z" />
<glyph unicode="&#xe5;" horiz-adv-x="1103" d="M80 322q0 162 118.5 253t295.5 91q99 0 251 -41v28q0 79 -49.5 126.5t-140.5 47.5q-135 0 -188 -96q-11 -18 -29 -18h-207q-14 0 -14 12t2 20q31 133 145.5 218.5t290.5 85.5q198 0 317 -107t119 -289v-444q0 -120 39 -189q11 -20 -14 -20h-250q-21 0 -21 20v60 q-55 -46 -122 -73t-170 -27q-161 0 -267 93.5t-106 248.5zM317 328q0 -60 47.5 -93.5t133.5 -33.5q98 0 172.5 60t74.5 155q-141 41 -241 41q-80 0 -133.5 -34t-53.5 -95zM346 1274q0 88 59 144.5t152 56.5t152 -56.5t59 -144.5t-59 -144.5t-152 -56.5t-152 56.5t-59 144.5z M485 1274q0 -33 20 -51.5t52 -18.5t52 18.5t20 51.5t-20 51t-52 18t-52 -18t-20 -51z" />
<glyph unicode="&#xe6;" horiz-adv-x="1910" d="M80 322q0 162 118.5 253t295.5 91q107 0 251 -39v26q0 79 -49.5 126.5t-140.5 47.5q-135 0 -188 -96q-11 -18 -29 -18h-207q-14 0 -14 12t2 20q31 133 145.5 218.5t290.5 85.5q121 0 215 -41.5t150 -118.5q73 76 172.5 118t212.5 42q123 0 224 -45t167.5 -121.5 t102.5 -177t36 -213.5v-35q0 -21 -20 -21h-789q18 -102 93 -168.5t186 -66.5q175 0 251 127q11 18 29 18h209q14 0 14 -14q0 -9 -4 -21q-129 -331 -501 -331q-126 0 -233 48.5t-177 137.5q-66 -88 -171.5 -137t-240.5 -49q-188 0 -294.5 91.5t-106.5 250.5zM317 328 q0 -60 47.5 -93.5t133.5 -33.5q98 0 172.5 60t74.5 155q-141 41 -241 41q-80 0 -133.5 -34t-53.5 -95zM1042 641h531q-29 87 -96 136.5t-172 49.5q-89 0 -161 -49.5t-102 -136.5z" />
<glyph unicode="&#xe7;" horiz-adv-x="1161" d="M74 514q0 238 152 386.5t384 148.5q195 0 326.5 -106.5t155.5 -260.5q2 -8 2 -20q0 -13 -15 -13h-200q-22 0 -29 19q-27 77 -91 118t-153 41q-125 0 -201.5 -83t-76.5 -230t76.5 -230t201.5 -83q89 0 153 41t91 118q7 19 29 19h200q15 0 15 -12q0 -13 -2 -21 q-12 -74 -50.5 -140t-99 -116t-145 -79.5t-181.5 -30.5l-43 -89q54 15 105 15q91 0 139.5 -44t48.5 -118q0 -84 -60 -127t-175 -43q-136 0 -221 20q-12 3 -16.5 7t-4.5 14v90q0 21 21 21q2 0 63 -13.5t131 -13.5q72 0 72 41q0 37 -51 37q-43 0 -121 -19q-8 -2 -15 -2 q-8 0 -14 6l-47 45q-6 6 -6 15q0 6 2 12l45 162q-178 42 -286.5 180.5t-108.5 337.5z" />
<glyph unicode="&#xe8;" horiz-adv-x="1214" d="M82 514q0 155 71 278t191.5 190t265.5 67q123 0 224.5 -45t167.5 -121.5t102.5 -177t36.5 -213.5v-35q0 -21 -21 -21h-780q15 -105 87 -170t183 -65q176 0 252 127q11 18 29 18h209q14 0 14 -14q0 -9 -4 -21q-129 -331 -502 -331q-225 0 -375.5 149.5t-150.5 384.5z M331 1427q3 7 13 7h260q19 0 31 -21l141 -258q5 -7 2 -13.5t-12 -6.5h-184q-22 0 -37 18l-211 260q-6 7 -3 14zM348 641h531q-29 87 -96.5 136.5t-172.5 49.5q-89 0 -160.5 -49.5t-101.5 -136.5z" />
<glyph unicode="&#xe9;" horiz-adv-x="1214" d="M82 514q0 155 71 278t191.5 190t265.5 67q123 0 224.5 -45t167.5 -121.5t102.5 -177t36.5 -213.5v-35q0 -21 -21 -21h-780q15 -105 87 -170t183 -65q176 0 252 127q11 18 29 18h209q14 0 14 -14q0 -9 -4 -21q-129 -331 -502 -331q-225 0 -375.5 149.5t-150.5 384.5z M348 641h531q-29 87 -96.5 136.5t-172.5 49.5q-89 0 -160.5 -49.5t-101.5 -136.5zM422 1141.5q-3 6.5 2 13.5l141 258q12 21 31 21h260q10 0 13 -7t-3 -14l-211 -260q-15 -18 -37 -18h-184q-9 0 -12 6.5z" />
<glyph unicode="&#xea;" horiz-adv-x="1214" d="M82 514q0 155 71 278t191.5 190t265.5 67q123 0 224.5 -45t167.5 -121.5t102.5 -177t36.5 -213.5v-35q0 -21 -21 -21h-780q15 -105 87 -170t183 -65q176 0 252 127q11 18 29 18h209q14 0 14 -14q0 -9 -4 -21q-129 -331 -502 -331q-225 0 -375.5 149.5t-150.5 384.5z M282.5 1112q-3.5 6 2.5 14l221 291q14 17 31 17h168q16 0 30 -17l221 -291q6 -8 2.5 -14t-12.5 -6h-192q-19 0 -37 18l-96 97l-97 -97q-18 -18 -37 -18h-192q-9 0 -12.5 6zM348 641h531q-29 87 -96.5 136.5t-172.5 49.5q-89 0 -160.5 -49.5t-101.5 -136.5z" />
<glyph unicode="&#xeb;" horiz-adv-x="1214" d="M82 514q0 155 71 278t191.5 190t265.5 67q123 0 224.5 -45t167.5 -121.5t102.5 -177t36.5 -213.5v-35q0 -21 -21 -21h-780q15 -105 87 -170t183 -65q176 0 252 127q11 18 29 18h209q14 0 14 -14q0 -9 -4 -21q-129 -331 -502 -331q-225 0 -375.5 149.5t-150.5 384.5z M301 1192v221q0 21 21 21h221q20 0 20 -21v-221q0 -21 -20 -21h-221q-21 0 -21 21zM348 641h531q-29 87 -96.5 136.5t-172.5 49.5q-89 0 -160.5 -49.5t-101.5 -136.5zM666 1192v221q0 21 20 21h221q21 0 21 -21v-221q0 -21 -21 -21h-221q-20 0 -20 21z" />
<glyph unicode="&#xec;" horiz-adv-x="438" d="M-72.5 1427q3.5 7 13.5 7h260q18 0 30 -21l142 -258q5 -7 1.5 -13.5t-12.5 -6.5h-184q-22 0 -37 18l-211 260q-6 7 -2.5 14zM96 20v988q0 20 21 20h205q20 0 20 -20v-988q0 -20 -20 -20h-205q-21 0 -21 20z" />
<glyph unicode="&#xed;" horiz-adv-x="438" d="M66 1141.5q-3 6.5 2 13.5l141 258q12 21 31 21h260q10 0 13 -7t-3 -14l-211 -260q-15 -18 -37 -18h-184q-9 0 -12 6.5zM96 20v988q0 20 21 20h205q20 0 20 -20v-988q0 -20 -20 -20h-205q-21 0 -21 20z" />
<glyph unicode="&#xee;" horiz-adv-x="438" d="M-119 1112q-4 6 2 14l221 291q14 17 31 17h168q17 0 31 -17l221 -291q6 -8 2.5 -14t-12.5 -6h-193q-19 0 -37 18l-96 97l-96 -97q-18 -18 -37 -18h-192q-9 0 -13 6zM96 20v988q0 20 21 20h205q20 0 20 -20v-988q0 -20 -20 -20h-205q-21 0 -21 20z" />
<glyph unicode="&#xef;" horiz-adv-x="438" d="M-94 1192v221q0 21 20 21h221q21 0 21 -21v-221q0 -21 -21 -21h-221q-20 0 -20 21zM96 20v988q0 20 21 20h205q20 0 20 -20v-988q0 -20 -20 -20h-205q-21 0 -21 20zM270 1192v221q0 21 21 21h221q20 0 20 -21v-221q0 -21 -20 -21h-221q-21 0 -21 21z" />
<glyph unicode="&#xf0;" horiz-adv-x="1191" d="M76 514q0 231 140 383t351 152q83 0 140.5 -16t119.5 -54q-52 85 -176 151l-221 -81q-21 -9 -27 10l-47 125q-7 16 13 26l57 21q-58 15 -107 22q-22 4 -16 29l31 148q2 14 28 14q171 -19 338 -96l258 94q6 2 13 2q8 0 14 -12l57 -142q8 -19 -12 -26l-127 -50 q108 -105 159.5 -243t51.5 -350q0 -305 -136.5 -473t-381.5 -168q-233 0 -376.5 151t-143.5 383zM338 514q0 -142 68 -227.5t190 -85.5q115 0 185.5 85t70.5 228q0 139 -71 226t-185 87q-122 0 -190 -85.5t-68 -227.5z" />
<glyph unicode="&#xf1;" d="M135 20v988q0 20 21 20h204q21 0 21 -20v-74q138 115 309 115q167 0 263 -93.5t96 -253.5v-682q0 -20 -21 -20h-205q-20 0 -20 20v594q0 112 -44 162.5t-132 50.5q-106 0 -176 -85t-70 -257v-465q0 -20 -21 -20h-204q-21 0 -21 20zM199 1343q0 9 12 19q129 100 238 100 q54 0 96 -12.5t63.5 -27.5t54 -27.5t68.5 -12.5q55 0 131 50q9 6 17 6q9 0 20 -17l88 -121q4 -6 4 -14t-12 -18q-131 -101 -238 -101q-54 0 -96 12.5t-63.5 27.5t-54 27.5t-68.5 12.5q-57 0 -131 -49q-9 -6 -17 -6q-9 0 -20 16l-88 121q-4 6 -4 14z" />
<glyph unicode="&#xf2;" horiz-adv-x="1249" d="M76 514q0 232 156.5 383.5t392.5 151.5t392.5 -151.5t156.5 -383.5t-156.5 -383t-392.5 -151t-392.5 151t-156.5 383zM333 1427q3 7 13 7h260q19 0 31 -21l141 -258q5 -7 2 -13.5t-12 -6.5h-184q-22 0 -37 18l-211 260q-6 7 -3 14zM338 514q0 -141 79.5 -227t207.5 -86 t207 86t79 227t-79 227t-207 86t-207.5 -86t-79.5 -227z" />
<glyph unicode="&#xf3;" horiz-adv-x="1249" d="M76 514q0 232 156.5 383.5t392.5 151.5t392.5 -151.5t156.5 -383.5t-156.5 -383t-392.5 -151t-392.5 151t-156.5 383zM338 514q0 -141 79.5 -227t207.5 -86t207 86t79 227t-79 227t-207 86t-207.5 -86t-79.5 -227zM432 1141.5q-3 6.5 2 13.5l141 258q12 21 31 21h260 q10 0 13.5 -7t-2.5 -14l-211 -260q-15 -18 -37 -18h-185q-9 0 -12 6.5z" />
<glyph unicode="&#xf4;" horiz-adv-x="1249" d="M76 514q0 232 156.5 383.5t392.5 151.5t392.5 -151.5t156.5 -383.5t-156.5 -383t-392.5 -151t-392.5 151t-156.5 383zM286.5 1112q-3.5 6 2.5 14l221 291q14 17 31 17h168q16 0 30 -17l222 -291q6 -8 2 -14t-13 -6h-192q-19 0 -37 18l-96 97l-97 -97q-18 -18 -36 -18 h-193q-9 0 -12.5 6zM338 514q0 -141 79.5 -227t207.5 -86t207 86t79 227t-79 227t-207 86t-207.5 -86t-79.5 -227z" />
<glyph unicode="&#xf5;" horiz-adv-x="1249" d="M76 514q0 232 156.5 383.5t392.5 151.5t392.5 -151.5t156.5 -383.5t-156.5 -383t-392.5 -151t-392.5 151t-156.5 383zM229 1343q0 9 13 19q129 100 237 100q54 0 96 -12.5t64 -27.5t54.5 -27.5t68.5 -12.5q55 0 131 50q9 6 16 6q10 0 21 -17l88 -121q4 -6 4 -14t-12 -18 q-131 -101 -238 -101q-54 0 -96 12.5t-64 27.5t-54.5 27.5t-68.5 12.5q-57 0 -131 -49q-9 -6 -16 -6q-9 0 -20 16l-89 121q-4 6 -4 14zM338 514q0 -141 79.5 -227t207.5 -86t207 86t79 227t-79 227t-207 86t-207.5 -86t-79.5 -227z" />
<glyph unicode="&#xf6;" horiz-adv-x="1249" d="M76 514q0 232 156.5 383.5t392.5 151.5t392.5 -151.5t156.5 -383.5t-156.5 -383t-392.5 -151t-392.5 151t-156.5 383zM311 1192v221q0 21 21 21h221q20 0 20 -21v-221q0 -21 -20 -21h-221q-21 0 -21 21zM338 514q0 -141 79.5 -227t207.5 -86t207 86t79 227t-79 227 t-207 86t-207.5 -86t-79.5 -227zM676 1192v221q0 21 20 21h222q20 0 20 -21v-221q0 -21 -20 -21h-222q-20 0 -20 21z" />
<glyph unicode="&#xf7;" horiz-adv-x="1171" d="M104 420v188q0 21 21 21h922q20 0 20 -21v-188q0 -21 -20 -21h-922q-21 0 -21 21zM446 20v222q0 20 21 20h221q21 0 21 -20v-222q0 -20 -21 -20h-221q-21 0 -21 20zM446 786v222q0 20 21 20h221q21 0 21 -20v-222q0 -20 -21 -20h-221q-21 0 -21 20z" />
<glyph unicode="&#xf8;" horiz-adv-x="1249" d="M76 514q0 232 156.5 383.5t392.5 151.5q110 0 206 -35l64 108q8 13 16 13q3 0 13 -5l88 -53q12 -7 12 -16q0 -4 -4 -12l-59 -103q100 -72 156.5 -184t56.5 -248q0 -232 -156.5 -383t-392.5 -151q-114 0 -207 34l-64 -108q-7 -12 -16 -12q-4 0 -12 4l-88 53q-13 8 -13 16 q0 5 4 13l60 102q-100 72 -156.5 184t-56.5 248zM338 514q0 -138 74 -221l305 522q-44 12 -92 12q-128 0 -207.5 -86t-79.5 -227zM532 213q44 -12 93 -12q128 0 207 86t79 227q0 139 -73 221z" />
<glyph unicode="&#xf9;" d="M119 326v682q0 20 20 20h205q21 0 21 -20v-594q0 -112 44 -162.5t132 -50.5q106 0 175.5 85t69.5 257v465q0 20 21 20h205q20 0 20 -20v-988q0 -20 -20 -20h-205q-21 0 -21 20v74q-137 -114 -309 -114q-167 0 -262.5 93t-95.5 253zM282 1427q3 7 13 7h260q19 0 31 -21 l141 -258q5 -7 2 -13.5t-12 -6.5h-185q-21 0 -36 18l-211 260q-6 7 -3 14z" />
<glyph unicode="&#xfa;" d="M119 326v682q0 20 20 20h205q21 0 21 -20v-594q0 -112 44 -162.5t132 -50.5q106 0 175.5 85t69.5 257v465q0 20 21 20h205q20 0 20 -20v-988q0 -20 -20 -20h-205q-21 0 -21 20v74q-137 -114 -309 -114q-167 0 -262.5 93t-95.5 253zM387 1141.5q-3 6.5 2 13.5l141 258 q12 21 31 21h260q10 0 13 -7t-3 -14l-210 -260q-15 -18 -37 -18h-185q-9 0 -12 6.5z" />
<glyph unicode="&#xfb;" d="M119 326v682q0 20 20 20h205q21 0 21 -20v-594q0 -112 44 -162.5t132 -50.5q106 0 175.5 85t69.5 257v465q0 20 21 20h205q20 0 20 -20v-988q0 -20 -20 -20h-205q-21 0 -21 20v74q-137 -114 -309 -114q-167 0 -262.5 93t-95.5 253zM239.5 1112q-3.5 6 2.5 14l221 291 q14 17 31 17h168q16 0 30 -17l221 -291q6 -8 2.5 -14t-12.5 -6h-192q-19 0 -37 18l-96 97l-97 -97q-18 -18 -37 -18h-192q-9 0 -12.5 6z" />
<glyph unicode="&#xfc;" d="M119 326v682q0 20 20 20h205q21 0 21 -20v-594q0 -112 44 -162.5t132 -50.5q106 0 175.5 85t69.5 257v465q0 20 21 20h205q20 0 20 -20v-988q0 -20 -20 -20h-205q-21 0 -21 20v74q-137 -114 -309 -114q-167 0 -262.5 93t-95.5 253zM260 1192v221q0 21 21 21h221 q20 0 20 -21v-221q0 -21 -20 -21h-221q-21 0 -21 21zM625 1192v221q0 21 20 21h221q21 0 21 -21v-221q0 -21 -21 -21h-221q-20 0 -20 21z" />
<glyph unicode="&#xfd;" horiz-adv-x="991" d="M-4 1012q0 16 16 16h238q20 0 26 -20l246 -646l199 646q3 11 8.5 15.5t18.5 4.5h225q16 0 16 -14q0 -9 -2 -15l-379 -1099q-63 -182 -154 -254t-206 -72q-125 0 -199 33q-20 11 -20 33v180q0 20 16 20q11 0 66.5 -22.5t97.5 -22.5q77 0 124 52.5t81 175.5l-414 972 q-4 12 -4 17zM348 1141.5q-3 6.5 2 13.5l142 258q12 21 30 21h260q10 0 13.5 -7t-2.5 -14l-211 -260q-15 -18 -37 -18h-185q-9 0 -12 6.5z" />
<glyph unicode="&#xfe;" horiz-adv-x="1220" d="M135 -385v1798q0 21 21 21h204q21 0 21 -21v-467q129 103 295 103q209 0 338 -145t129 -390t-129 -389.5t-338 -144.5q-166 0 -295 104v-469q0 -21 -21 -21h-204q-21 0 -21 21zM369 514q0 -136 69.5 -224.5t188.5 -88.5t188.5 88.5t69.5 224.5t-69.5 224.5t-188.5 88.5 t-188.5 -88.5t-69.5 -224.5z" />
<glyph unicode="&#xff;" horiz-adv-x="991" d="M-4 1012q0 16 16 16h238q20 0 26 -20l246 -646l199 646q3 11 8.5 15.5t18.5 4.5h225q16 0 16 -14q0 -9 -2 -15l-379 -1099q-63 -182 -154 -254t-206 -72q-125 0 -199 33q-20 11 -20 33v180q0 20 16 20q11 0 66.5 -22.5t97.5 -22.5q77 0 124 52.5t81 175.5l-414 972 q-4 12 -4 17zM182 1192v221q0 21 21 21h221q20 0 20 -21v-221q0 -21 -20 -21h-221q-21 0 -21 21zM547 1192v221q0 21 20 21h221q21 0 21 -21v-221q0 -21 -21 -21h-221q-20 0 -20 21z" />
<glyph unicode="&#x152;" horiz-adv-x="2318" d="M78 717q0 145 40 267.5t108 207.5t159 145t192.5 88.5t208.5 28.5q132 0 257 -45t223 -131v135q0 21 20 21h883q20 0 20 -21v-196q0 -21 -20 -21h-645v-324h583q21 0 21 -20v-197q0 -20 -21 -20h-583v-397h676q20 0 20 -21v-197q0 -20 -20 -20h-914q-20 0 -20 20v136 q-97 -87 -222 -131.5t-258 -44.5q-107 0 -208.5 28.5t-192.5 88.5t-159 145t-108 207.5t-40 267.5zM344 717q0 -122 36.5 -219.5t99 -157.5t140.5 -91.5t166 -31.5q70 0 134 19.5t120.5 60t98.5 99t66 141t24 180.5t-24 180.5t-66 141t-98.5 99t-120.5 60t-134 19.5 q-88 0 -166 -31.5t-140.5 -91.5t-99 -157.5t-36.5 -219.5z" />
<glyph unicode="&#x153;" horiz-adv-x="2091" d="M76 514q0 232 156.5 383.5t392.5 151.5q136 0 249.5 -54t188.5 -151q72 97 183 151t241 54q123 0 224 -45t167.5 -121.5t102.5 -177t36 -213.5v-35q0 -21 -20 -21h-780q15 -105 87 -170t183 -65q176 0 252 127q7 12 12 15t16 3h209q15 0 15 -14q0 -9 -4 -21 q-129 -331 -502 -331q-131 0 -241 53t-181 149q-74 -96 -188 -149t-250 -53q-236 0 -392.5 151t-156.5 383zM338 514q0 -141 79.5 -227t207.5 -86t207 86t79 227t-79 227t-207 86t-207.5 -86t-79.5 -227zM1225 641h530q-29 87 -96 136.5t-172 49.5q-89 0 -160.5 -49.5 t-101.5 -136.5z" />
<glyph unicode="&#x178;" horiz-adv-x="1118" d="M-12 1421q0 13 14 13h240q19 0 26 -17l291 -645l291 645q7 17 27 17h239q14 0 14 -13q0 -4 -2 -8l-440 -909v-484q0 -20 -20 -20h-217q-21 0 -21 20v484l-440 909q-2 4 -2 8zM246 1597v222q0 20 20 20h221q21 0 21 -20v-222q0 -20 -21 -20h-221q-20 0 -20 20zM610 1597 v222q0 20 21 20h221q20 0 20 -20v-222q0 -20 -20 -20h-221q-21 0 -21 20z" />
<glyph unicode="&#x2c6;" horiz-adv-x="839" d="M81.5 1112q-3.5 6 2.5 14l221 291q14 17 31 17h168q17 0 31 -17l221 -291q6 -8 2 -14t-13 -6h-192q-19 0 -37 18l-96 97l-96 -97q-18 -18 -37 -18h-193q-9 0 -12.5 6z" />
<glyph unicode="&#x2dc;" horiz-adv-x="899" d="M53 1343q0 9 13 19q129 100 237 100q54 0 96 -12.5t64 -27.5t54.5 -27.5t68.5 -12.5q55 0 131 50q9 6 16 6q10 0 21 -17l88 -121q4 -6 4 -14t-12 -18q-131 -101 -238 -101q-54 0 -96 12.5t-64 27.5t-54.5 27.5t-68.5 12.5q-57 0 -131 -49q-9 -6 -16 -6q-10 0 -21 16 l-88 121q-4 6 -4 14z" />
<glyph unicode="&#x2000;" horiz-adv-x="940" />
<glyph unicode="&#x2001;" horiz-adv-x="1880" />
<glyph unicode="&#x2002;" horiz-adv-x="940" />
<glyph unicode="&#x2003;" horiz-adv-x="1880" />
<glyph unicode="&#x2004;" horiz-adv-x="626" />
<glyph unicode="&#x2005;" horiz-adv-x="470" />
<glyph unicode="&#x2006;" horiz-adv-x="313" />
<glyph unicode="&#x2007;" horiz-adv-x="313" />
<glyph unicode="&#x2008;" horiz-adv-x="235" />
<glyph unicode="&#x2009;" horiz-adv-x="376" />
<glyph unicode="&#x200a;" horiz-adv-x="104" />
<glyph unicode="&#x2010;" horiz-adv-x="1052" d="M104 606v189q0 20 21 20h803q20 0 20 -20v-189q0 -20 -20 -20h-803q-21 0 -21 20z" />
<glyph unicode="&#x2011;" horiz-adv-x="1052" d="M104 606v189q0 20 21 20h803q20 0 20 -20v-189q0 -20 -20 -20h-803q-21 0 -21 20z" />
<glyph unicode="&#x2012;" horiz-adv-x="1052" d="M104 606v189q0 20 21 20h803q20 0 20 -20v-189q0 -20 -20 -20h-803q-21 0 -21 20z" />
<glyph unicode="&#x2013;" horiz-adv-x="1171" d="M106 606v189q0 20 21 20h917q21 0 21 -20v-189q0 -20 -21 -20h-917q-21 0 -21 20z" />
<glyph unicode="&#x2014;" horiz-adv-x="1626" d="M104 606v189q0 20 21 20h1376q21 0 21 -20v-189q0 -20 -21 -20h-1376q-21 0 -21 20z" />
<glyph unicode="&#x2018;" horiz-adv-x="526" d="M123 963v262q0 83 52 146t147 63h69q21 0 21 -21v-82q0 -20 -21 -20q-65 0 -90 -26t-25 -77v-12h101q20 0 20 -20v-213q0 -21 -20 -21h-234q-20 0 -20 21z" />
<glyph unicode="&#x2019;" horiz-adv-x="526" d="M115 963v81q0 21 20 21q65 0 90 25.5t25 76.5v13h-100q-21 0 -21 20v213q0 21 21 21h233q20 0 20 -21v-262q0 -83 -51.5 -146t-146.5 -63h-70q-20 0 -20 21z" />
<glyph unicode="&#x201a;" horiz-adv-x="526" d="M115 -135q0 20 20 20q65 0 90 26t25 77v12h-100q-21 0 -21 20v213q0 21 21 21h233q20 0 20 -21v-262q0 -83 -51.5 -146t-146.5 -63h-70q-20 0 -20 21v82z" />
<glyph unicode="&#x201c;" horiz-adv-x="833" d="M102 963v262q0 83 52 146t147 63h70q20 0 20 -21v-82q0 -20 -20 -20q-65 0 -90 -26t-25 -77v-12h100q21 0 21 -20v-213q0 -21 -21 -21h-233q-21 0 -21 21zM451 963v262q0 83 51.5 146t146.5 63h70q20 0 20 -21v-82q0 -20 -20 -20q-65 0 -90 -26t-25 -77v-12h101 q20 0 20 -20v-213q0 -21 -20 -21h-234q-20 0 -20 21z" />
<glyph unicode="&#x201d;" horiz-adv-x="833" d="M94 963v81q0 21 21 21q65 0 89.5 25.5t24.5 76.5v13h-100q-20 0 -20 20v213q0 21 20 21h233q21 0 21 -21v-262q0 -83 -52 -146t-147 -63h-69q-21 0 -21 21zM442 963v81q0 21 21 21q65 0 90 25.5t25 76.5v13h-101q-20 0 -20 20v213q0 21 20 21h234q20 0 20 -21v-262 q0 -83 -52 -146t-147 -63h-69q-21 0 -21 21z" />
<glyph unicode="&#x201e;" horiz-adv-x="833" d="M94 -135q0 20 21 20q65 0 89.5 26t24.5 77v12h-100q-20 0 -20 20v213q0 21 20 21h233q21 0 21 -21v-262q0 -83 -52 -146t-147 -63h-69q-21 0 -21 21v82zM442 -135q0 20 21 20q65 0 90 26t25 77v12h-101q-20 0 -20 20v213q0 21 20 21h234q20 0 20 -21v-262q0 -83 -52 -146 t-147 -63h-69q-21 0 -21 21v82z" />
<glyph unicode="&#x2022;" horiz-adv-x="786" d="M119 668q0 114 80 194t194 80t194.5 -80t80.5 -194t-80.5 -194.5t-194.5 -80.5t-194 80.5t-80 194.5z" />
<glyph unicode="&#x2026;" horiz-adv-x="1531" d="M164 20v222q0 20 20 20h222q20 0 20 -20v-222q0 -20 -20 -20h-222q-20 0 -20 20zM633 20v222q0 20 20 20h221q21 0 21 -20v-222q0 -20 -21 -20h-221q-20 0 -20 20zM1102 20v222q0 20 20 20h221q21 0 21 -20v-222q0 -20 -21 -20h-221q-20 0 -20 20z" />
<glyph unicode="&#x202f;" horiz-adv-x="376" />
<glyph unicode="&#x2039;" horiz-adv-x="690" d="M74 492v139q0 20 20 37l479 413q6 6 13 6q12 0 12 -14v-229q0 -21 -14 -33l-279 -250l279 -250q14 -12 14 -32v-230q0 -14 -12 -14q-7 0 -13 6l-479 414q-20 17 -20 37z" />
<glyph unicode="&#x203a;" horiz-adv-x="690" d="M92 49v230q0 20 14 32l279 250l-279 250q-14 12 -14 33v229q0 14 12 14q7 0 13 -6l479 -413q20 -17 20 -37v-139q0 -20 -20 -37l-479 -414q-6 -6 -13 -6q-12 0 -12 14z" />
<glyph unicode="&#x205f;" horiz-adv-x="470" />
<glyph unicode="&#x20ac;" horiz-adv-x="1398" d="M16 434v197q0 20 21 20h137q-2 23 -2 66q0 42 2 65h-137q-21 0 -21 21v196q0 21 21 21h180q65 202 211 318t342 116q233 0 384.5 -132t182.5 -353q0 -21 -20 -21h-211q-10 0 -14 4.5t-7 16.5q-71 248 -315 248q-205 0 -291 -197h379q21 0 21 -21v-196q0 -21 -21 -21h-430 q-2 -23 -2 -65q0 -46 2 -66h430q21 0 21 -20v-197q0 -20 -21 -20h-379q86 -197 291 -197q244 0 315 248q3 11 7 15.5t14 4.5h211q20 0 20 -20q-31 -221 -182.5 -353t-384.5 -132q-196 0 -342 116t-211 318h-180q-21 0 -21 20z" />
<glyph unicode="&#x2122;" horiz-adv-x="1460" d="M23 1298v115q0 21 20 21h541q20 0 20 -21v-115q0 -20 -20 -20h-191v-590q0 -20 -20 -20h-119q-21 0 -21 20v590h-190q-20 0 -20 20zM645 688v725q0 21 21 21h168q18 0 24 -17l156 -395l155 395q6 17 25 17h168q20 0 20 -21v-725q0 -20 -20 -20h-119q-20 0 -20 20v473 l-142 -356q-6 -12 -16 -12h-102q-11 0 -17 12l-141 356v-473q0 -20 -21 -20h-118q-21 0 -21 20z" />
<glyph unicode="&#x25fc;" horiz-adv-x="1024" d="M0 0v1024h1024v-1024h-1024z" />
<glyph unicode="&#xfb01;" horiz-adv-x="1204" d="M25 827v181q0 20 20 20h164v88q0 159 89 248.5t245 89.5q116 0 213 -43q11 -4 13.5 -11.5t2.5 -23.5v-176q0 -16 -12 -16q-7 0 -17 4q-96 45 -165 45q-123 0 -123 -137v-68h282q21 0 21 -20v-181q0 -20 -21 -20h-282v-787q0 -20 -21 -20h-205q-20 0 -20 20v787h-164 q-20 0 -20 20zM848 1180v233q0 21 20 21h234q20 0 20 -21v-233q0 -21 -20 -21h-234q-20 0 -20 21zM862 20v988q0 20 21 20h204q21 0 21 -20v-988q0 -20 -21 -20h-204q-21 0 -21 20z" />
<glyph unicode="&#xfb02;" horiz-adv-x="1253" d="M25 827v181q0 20 20 20h164v88q0 159 89 248.5t245 89.5q116 0 213 -43q11 -4 13.5 -11.5t2.5 -23.5v-176q0 -16 -12 -16q-7 0 -17 4q-96 45 -165 45q-123 0 -123 -137v-68h282q21 0 21 -20v-181q0 -20 -21 -20h-282v-787q0 -20 -21 -20h-205q-20 0 -20 20v787h-164 q-20 0 -20 20zM887 20v1393q0 21 20 21h205q21 0 21 -21v-1393q0 -20 -21 -20h-205q-20 0 -20 20z" />
</font>
</defs>
</svg>
